<?xml version="1.0" standalone="no"?>
<!DOCTYPE svg PUBLIC "-//W3C//DTD SVG 1.1//EN" "http://www.w3.org/Graphics/SVG/1.1/DTD/svg11.dtd">
<svg xmlns="http://www.w3.org/2000/svg">
<metadata>Generated by Fontastic.me</metadata>
<defs>
<font id="cozifyui3" horiz-adv-x="512">
<font-face font-family="cozifyui3" units-per-em="512" ascent="480" descent="-32"/>
<missing-glyph horiz-adv-x="512" />

<glyph glyph-name="add-to-favorites" unicode="&#97;" d="M348 303c35 0 64-29 64-64 0-36-29-65-64-65-24 0-46 14-56 34-16-15-28-26-29-27 0 1-70 64-82 91-5 12-5 25-1 36 4 10 13 19 25 25 10 5 22 6 32 3 11-3 20-12 26-21 7 9 16 18 26 21 11 3 22 2 33-3 12-6 20-15 25-25 0-2 1-4 1-5 0 0 0 0 0 0-20 0-38-9-49-23 11 14 29 23 49 23z m0-123c32 0 58 26 58 59 0 32-26 58-58 58-32 0-59-26-59-58 0-33 27-59 59-59z m-59 35c-1 0-1 1-1 2 0-1 0-2 1-2z m-3 6c0 1 0 2 0 3 0-1 0-2 0-3z m-1 8c0 1-1 1-1 2 0-1 1-1 1-2z m59 41l9 0 0-27 26 0 0-9-26 0 0-27-9 0 0 27-26 0 0 9 26 0z"/>
<glyph glyph-name="wakeup" unicode="&#98;" d="M256 405c-82 0-149-67-149-149 0-56 30-105 76-130l-16-34c-5-12 13-20 18-9l16 34c17-6 35-10 55-10 19 0 37 4 54 10l16-34c6-11 24-3 18 9l-16 34c46 25 77 74 77 130 0 82-67 149-149 149z m0-278c-72 0-129 57-129 129 0 72 57 129 129 129 71 0 130-57 130-129 0-72-59-129-130-129z m-10 228l0-93-58-34c-9-5-5-19 4-19 2 0 4 1 5 1l64 37c3 2 5 5 5 9l0 99c0 14-20 14-20 0z m-48 60c12 4 5 23-7 19-52-20-93-61-113-113-2-7 3-13 9-13 5 0 9 2 10 6 17 47 54 84 101 101z m236-94c-20 52-61 93-114 113-12 4-18-15-6-19 47-17 84-54 101-101 1-5 6-7 9-7 7 1 12 7 10 14z"/>
<glyph glyph-name="add-to-rule" unicode="&#99;" d="M108 255l-14-13-13 14-7-6 13-14-14-13 6-6 14 13 13-15 7 6-13 14 14 13z m146 1c-2 0-4 0-6-1-5-1-9-5-11-9-2-5-3-10-1-15 3-8 10-13 18-13l0 0c2 0 4 1 6 1 10 4 16 15 12 25-3 7-10 12-18 12z m4-29c-2 0-3 0-4 0-4 0-8 3-10 7-2 5 1 11 7 13 1 1 2 1 3 1 4 0 8-3 10-7 2-6-1-12-6-14z m-15 41l-4 35-11-8c-19 22-40 32-62 30-40-4-67-50-68-52l8-4c0 1 25 44 61 47 18 2 37-7 55-27l-11-7z m111 6l-9 0 0-27-26 0 0-9 26 0 0-27 9 0 0 27 26 0 0 9-26 0z m-5 33c-35 0-64-29-64-64 0-36 29-65 64-65 36 0 64 29 64 65 0 35-28 64-64 64z m0-123c-32 0-58 26-58 59 0 32 26 58 58 58 33 0 59-26 59-58 0-33-26-59-59-59z"/>
<glyph glyph-name="add-to-queue" unicode="&#100;" d="M278 323c27 2 32 23 32 24 0 1 0 65 0 65l-15 0 0-58c0 0-34 2-33-21 1-9 12-10 16-10z m102 20l-9 0 0-27-26 0 0-8 26 0 0-27 9 0 0 27 26 0 0 8-26 0z m6 32c-5 46-43 82-90 83 0 0-1 0-1 0-5 0-9-4-9-10 0-5 2-9 10-9l0-1c35 0 66-27 71-62-32-4-56-31-56-64 0-6 1-12 2-18-6-1-12-2-19-2-38 0-70 29-73 67l17 0-26 43-26-43 16 0c2-48 43-87 92-87 10 0 19 2 28 5 11-18 31-29 53-29 35 0 64 29 64 64 0 32-23 58-53 63z m-11-121c-32 0-59 26-59 58 0 33 27 59 59 59 32 0 58-26 58-59 0-32-26-58-58-58z"/>
<glyph glyph-name="add-to-scene" unicode="&#101;" d="M139 242l9-7 31 39-10 7z m0-12l-13-12-12 13-6-5 12-13-13-12 5-6 13 12 12-13 6 5-12 13 13 12z m178 77c2 0 4 0 6 1 4 1 7 4 9 8 2 4 2 8 1 12-3 7-9 11-16 11-1 0-3 0-5-1-8-3-13-12-10-20 2-7 9-11 15-11z m-3 24c1 1 2 1 3 1 4 0 8-3 9-6 1-2 0-5-1-7-1-2-2-4-5-4-1-1-2-1-3-1-3 0-7 2-8 6-2 5 1 10 5 11z m-103-47l-9-8 37-41 8 8z m-21 27c-7 0-13-6-13-13 0-7 6-13 13-13 7 0 13 6 13 13 0 7-6 13-13 13z m69-76c-7 0-12-5-12-13 0-7 5-12 12-12 7 0 13 5 13 12 0 8-6 13-13 13z m96 42l-10 0 0-27-25 0 0-9 25 0 0-27 10 0 0 27 25 0 0 9-25 0z m-5 33c-16 0-30-6-42-15 1 0 1 0 1 0l1 2-10 6-33-57 10-6 10 16c-1-3-1-7-1-10 0-36 28-64 64-64 35 0 64 28 64 64 0 35-29 64-64 64z m0-123c-33 0-59 26-59 59 0 32 26 58 59 58 32 0 58-26 58-58 0-33-26-59-58-59z"/>
<glyph glyph-name="addsmall" unicode="&#102;" d="M256 347c-51 0-91-40-91-91 0-50 40-91 91-91 50 0 91 40 91 91 0 51-41 91-91 91z m0-178c-49 0-87 39-87 87 0 48 39 87 87 87 48 0 87-39 87-87 0-48-39-87-87-87z m3 131l-6 0 0-41-41 0 0-6 41 0 0-41 6 0 0 41 41 0 0 6-41 0c0 0 0 41 0 41z"/>
<glyph glyph-name="athome" unicode="&#103;" d="M360 121l-205 0 0 129-13 0 0-141 231 0 0 141-13 0z m-92 273l-9 9-59-59 0 47-13 0 0-60-87-86 9-9 150 149 144-149 9 9z m4-98c0 7-6 12-13 12-6 0-12-5-12-12 0-7 6-12 12-12 7-1 13 5 13 12z m-41-32l0-39c0-7 10-7 10 0l0 38 3 0 0-102c0-4 3-7 7-7 4 0 7 3 7 7l0 59 3 0 0-59c0-4 3-7 7-7 3 0 6 3 6 7l0 102 3 0 0-38c0-7 10-7 10 0l0 39c0 8-4 16-14 16l-29 0c-7 0-13-7-13-16z"/>
<glyph glyph-name="away" unicode="&#104;" d="M326 136l-58 0 0 90-89 0 0-90-58 0 0 128-12 0 0-141 83 0 0 90 64 0 0-90 83 0 0 141-13 0 0-128 0 0z m-92 273l-9 9-59-59 0 46-13 0 0-59-86-87 9-9 149 150 143-150 9 10z m253-190l-55 55-6-6 44-45-99 0 0-9 99 0-44-44 6-6 55 55-1 0z m-13-1l0 1 1 0z"/>
<glyph glyph-name="backarrow" unicode="&#105;" d="M182 257l63 64 11-10-45-47 119 0 0-16-119 0 46-47-12-10-63 64z"/>
<glyph glyph-name="ball-options" unicode="&#106;" d="M256 273c-11 0-20-9-20-20 0-10 9-19 20-19 11 0 20 9 20 19 0 11-9 20-20 20z m-62 0c-11 0-20-9-20-20 0-10 9-19 20-19 10 0 19 9 19 19 0 11-9 20-19 20z m62 107c-68 0-124-56-124-124 0-68 56-124 124-124 68 0 124 56 124 124 0 68-56 124-124 124z m0-240c-64 0-116 52-116 116 0 64 52 116 116 116 64 0 116-52 116-116 0-64-52-116-116-116z m62 133c-11 0-19-9-19-20 0-10 8-19 19-19 11 0 20 9 20 19 0 11-9 20-20 20z"/>
<glyph glyph-name="brightness" unicode="&#107;" d="M256 306c-28 0-51-22-51-50 0-28 22-51 51-51 27 0 50 22 50 51 0 28-22 50-50 50z m0-80c-17 0-31 13-31 30 0 17 14 30 31 30 16 0 30-13 30-30 0-17-14-30-30-30z m-53 69l-27 27 14 14 28-27c-6-4-11-9-15-14z m91 14l28 27 14-14-27-28c-4 6-9 11-15 15z m-103-63l-39 0 0 20 39 0c0-4-1-7-1-10 0-3 1-7 1-10z m55 75l0 39 20 0 0-40c-3 1-7 1-10 1-3 0-7 0-10 0z m-29-118l-28-28-14 14 28 28c4-5 9-10 14-14z m143 63l0-20-40 0c1 3 1 6 1 10 0 3 0 6-1 10l40 0z m-94-75l0-39-20 0 0 39c3 0 6-1 10-1 3 0 7 1 10 1z m43 27l27-28-14-14-28 27c6 4 11 9 15 15z"/>
<glyph glyph-name="camera" unicode="&#108;" d="M359 308c-7 0-12-5-12-12 0-6 5-12 12-12 7 0 12 6 12 12-1 7-6 12-12 12z m20 32l-246 0c-7 0-13-6-13-13l0-49c0-7 6-13 13-13l246 0c7 0 13 6 13 13l0 49c0 7-6 13-13 13z m4-62c0-2-2-4-4-4l-246 0c-2 0-4 2-4 4l0 49c0 2 2 3 4 3l246 0c2 0 4-1 4-3z m-238-39c0-41 24-78 58-97l3-1c1 0 2 0 3-1 2-1 4-2 6-3 2-1 4-2 5-2 2 0 4 0 6-1 2-1 4-1 5-2 3-1 5-1 7-1 2 0 4-1 4-1 5-1 8-1 12-1l3 0c4 0 8 0 12 1 1 0 3 1 4 1 3 0 5 1 7 1 2 0 3 1 5 2 2 1 4 1 6 1 2 1 3 1 5 2 2 1 4 2 6 3 1 1 3 1 3 1l3 1c34 19 58 56 58 97l0 20-221 0z m155-91c-1 0-1-1-2-1-2-1-4-1-5-1-2-1-4-2-5-2-2-1-4-1-6-2-1-1-3-1-5-1-1 0-3-1-6-1-1 0-3-1-5-1-3 0-7-1-11-1l-2 0c-4 0-7 0-11 1-1 0-3 1-5 1-1 0-3 1-6 1-1 0-3 0-5 1-2 1-3 1-5 2-2 1-3 1-5 2-2 0-3 0-5 1-1 0-2 1-2 1l0 43c0 24 18 44 40 44l8 0c22 0 40-20 40-44l0-43z m-146 102l204 0 0-11c0-36-19-68-48-86l0 38c0 30-22 53-50 53l-7 0c-28 0-50-23-50-53l0-39c-30 19-49 51-49 87l0 11z m102-25c-20 0-35-15-35-35 0-20 15-35 35-35 20 0 35 15 35 35 0 20-16 35-35 35z m0-59c-14 0-24 11-24 24 0 14 11 24 24 24 14 0 24-11 24-24 0-13-11-24-24-24z m0 44c-11 0-20-9-20-20 0-11 9-21 20-21 11 0 20 10 20 21 0 12-9 20-20 20z m0-32c-7 0-12 5-12 12 0 7 5 12 12 12 7 0 12-5 12-12 0-7-5-12-12-12z"/>
<glyph glyph-name="checkboxbg" unicode="&#109;" d="M198 349l116 0c19 0 35-16 35-35l0-116c0-19-16-35-35-35l-116 0c-19 0-35 16-35 35l0 116c0 19 16 35 35 35z"/>
<glyph glyph-name="circleaddnew" unicode="&#110;" d="M256 0l0 0 0 6 0 0c10 0 19 1 29 2l1-6c-10-2-20-2-30-2z m-43 4c-10 1-20 4-29 7l1 5c9-3 19-5 29-6z m115 6l-2 6c9 3 18 6 28 10l2-6c-9-4-19-7-28-10z m-185 16c-8 4-17 9-26 15l4 5c8-5 17-10 25-14z m251 14l-3 6c8 5 16 11 23 17l5-5c-8-6-16-12-25-18z m-311 27c-7 7-14 14-21 21l5 5c6-8 13-15 20-21z m366 21l-4 4c6 7 12 15 18 23l5-3c-6-8-12-16-19-24z m-412 35c-5 9-10 18-14 27l6 3c5-9 9-18 14-27z m452 26l-6 3c4 9 7 18 10 27l6-2c-2-9-6-19-10-28z m-480 41c-3 10-5 20-6 30l6 1c1-10 3-20 6-29z m500 29l-6 1c1 9 2 19 2 29l7 0c0-10-1-20-3-30z m-502 44l-7 0c1 10 1 20 3 29l6 0c-1-10-2-20-2-29z m496 28c-1 9-3 19-6 28l7 2c2-10 4-19 6-29z m-485 41l-6 3c3 9 7 19 11 28l6-3c-4-9-8-18-11-28z m466 27c-5 9-9 18-14 26l6 4c5-9 9-18 13-27z m-434 38l-6 3c6 8 12 16 19 24l5-4c-7-8-13-15-18-23z m395 22c-6 7-13 14-20 21l4 5c7-7 15-14 21-22z m-347 30l-5 5c8 6 16 12 25 18l3-6c-8-5-16-11-23-17z m294 17c-8 5-17 10-26 14l3 5c9-4 18-9 26-14z m-234 20l-2 6c9 4 18 7 28 10l2-6c-10-3-19-6-28-10z m169 10c-9 3-19 5-28 6l1 7c10-2 20-4 29-7z m-100 8l-1 6c10 2 20 2 30 2l1 0 0-6-1 0c-10 0-19-1-29-2z m28-178l0-67-63 0 0-11 63 0 0-67 11 0 0 67 64 0 0 11-64 0 0 67z"/>
<glyph glyph-name="curtains" unicode="&#111;" d="M129 372l0-9 254 0 0 9z m10-117c-1 0-2 1-2 1-3 0-2-5-1-7 0-1 0-3 0-4 0-1 1-1 2-1-1-19-4-100-4-100 0 0 6 0 10-1 5-1 18 4 18 4 0 0 3 29-7 71-2 11-4 17-6 22 4-1 5 4 5 6 0 1 0 1-1 2 2 1 2 6 1 6 0 0-1 0-2 0 3 2 8 5 16 10 25 17 54 84 54 84l-84 0c0 0 1-66 1-93z m236-11c0 1 1 3 0 4 1 3 1 7-1 7 0 0-1 0-1-1 0 27 0 93 0 93l-83 0c0 0 29-67 54-86 7-6 12-8 15-11-1 0-1 0-1 0-2 0-2-4 0-6 0 0-1 0-1-1 0-3 1-7 5-6-1-5-4-12-6-22-9-42-7-72-7-72 0 0 14-4 18-3 4 1 10 1 10 1 0 0-4 82-4 99 1 3 2 4 2 4z"/>
<glyph glyph-name="device-add" unicode="&#112;" d="M176 312l4-2c2 3 5 6 8 9l-3 3c-3-3-6-6-9-10z m0-112c3-4 6-7 9-10l3 3c-3 3-6 6-8 9z m19 131l2-3c4 3 7 5 11 7l-3 4c-3-2-7-5-10-8z m-1-150c4-3 7-6 11-8l2 4c-3 2-7 4-10 7z m-30 108l4-2c2 4 3 8 5 12l-3 2c-2-4-4-8-6-12z m1-14l-4 1c-1-5-2-9-2-13l4-1c0 5 1 9 2 13z m117 75c-4 1-8 2-12 2l-1-4c4-1 8-1 12-3z m-65-183c4-2 8-4 12-5l2 4c-4 2-8 3-12 5z m-53 56c2-4 3-8 5-12l4 2c-2 4-3 8-5 12z m92 128l0 0 0 3c-5 0-9-1-13-1l0-4c4 1 9 2 13 2z m-93-101l-4-1c0-4 1-8 2-13l4 1c-1 4-2 8-2 13z m188 25c-1 5-2 9-3 13l-4-1c1-4 2-8 3-12z m-19-73l3-2c3 3 5 7 7 11l-4 2c-2-4-4-7-6-11z m0 107c2-3 5-7 7-11l3 2c-2 4-4 8-6 12z m-14 22l-3-3c3-3 6-6 9-9l3 3c-3 3-6 6-9 9z m25-106l4-2c2 4 3 9 4 13l-4 1c-1-4-2-8-4-12z m-29-41l3-4c4 3 7 6 10 9l-3 3c-3-3-6-6-10-8z m39 78l-4 0c0-2 0-4 0-6 0-2 0-5 0-7l4 0c0 2 0 5 0 7 0 2 0 4 0 6z m-85-98l1-4c4 0 9 1 13 2l-1 4c-4-1-8-2-13-2z m-51 181l2-4c4 2 8 3 12 5l-1 4c-5-2-9-3-13-5z m25-185c5-1 9-1 14-1l0 4c-5 0-9 0-13 1z m51 181c4-2 8-4 11-6l3 4c-4 2-8 4-12 6z m0-170l1-4c5 1 8 3 12 6l-2 3c-4-2-7-4-11-5z m-29 112l-8 0 0-22-22 0 0-8 22 0 0-22 8 0 0 22 22 0 0 8-22 0z"/>
<glyph glyph-name="devices" unicode="&#113;" d="M296 318c0 2 0 9 0 16 4-3 7-5 7-10 8 11-7 13-7 18l-4 0 0-20c-5 1-11-4-9-8 2-5 13-4 13 4z m-180-132l-29 0c-2 0-4-1-4-3 0-2 2-4 4-4l29 0c2 0 3 2 3 4 0 2-1 3-3 3z m-57 62c0-24 22-37 22-56l10 0c-1 23-22 35-22 56 0 39 64 39 64 0 0-21-21-33-21-56l10 0c0 19 21 32 21 56 0 52-84 52-84 0z m56-73l-28 0c-2 0-3-2-3-4 0-2 1-4 3-4l28 0c2 0 4 2 4 4 0 2-2 4-4 4z m287 110c0 3-2 6-6 6-3 0-5-3-5-6l0-22 11 0z m-304-130l6 0c3 0 3 1 11 8l-28 0c8-7 8-8 11-8z m341 130c0 3-3 6-6 6-3 0-6-3-6-6l0-22 12 0z m-201 41c-1 3-3 17-3 17l19 7 2-14c-6 0-11-5-9-10 3-6 16-2 15 6-1 3-4 30-4 30l-29-10 3-22c-6 0-11-6-9-10 3-7 16-3 15 6z m61-37l-86 0c-5 0-8-4-8-8l0-123c0-5 3-8 8-8l86 0c4 0 8 3 8 8l0 123c0 4-4 8-8 8z m2-126c0-4-3-7-6-7l-78 0c-4 0-7 3-7 7l0 113c0 4 3 7 7 7l78 0c3 0 6-3 6-7z m-9 113c-3 0-5-2-5-4 0-3 2-5 5-5 2 0 4 2 4 5 0 2-2 4-4 4z m85-21c0-48 31-45 31-63l0-36 13 0 0 36c0 18 32 15 32 63 0 0-66 0-76 0z m-151 17c0 2-2 4-4 4-3 0-5-2-5-4 0-3 2-5 5-5 2 0 4 2 4 5z m30-31c8 0 14 6 14 14 0 7-6 13-14 13-7 0-13-6-13-13 0-8 6-14 13-14z m0 24c6 0 10-5 10-10 0-6-4-10-10-10-5 0-10 4-10 10 0 5 5 10 10 10z m0-36c-17 0-32-15-32-32 0-18 15-32 32-32 18 0 32 14 32 32 0 17-14 32-32 32z m0-59c-14 0-26 12-26 27 0 14 12 26 26 26 15 0 27-12 27-26 0-15-12-27-27-27z m0 34c-4 0-7-3-7-7 0-5 3-8 7-8 5 0 8 3 8 8 0 4-3 7-8 7z"/>
<glyph glyph-name="clear-values" unicode="&#114;" d="M256 346c-50 0-90-40-90-90 0-50 40-90 90-90 50 0 90 40 90 90 0 50-40 90-90 90z m41-124l-6-6-34 34-34-34-6 6 34 34-34 34 6 6 34-34 34 34 6-6-34-34z"/>
<glyph glyph-name="close" unicode="&#115;" d="M319 203l-3-2-8-8-52 53-52-53-8 8-3 3 3 2 50 50-50 50-3 2 3 3 8 8 52-53 52 53 8-8 3-2-3-3-50-50 50-50z"/>
<glyph glyph-name="color" unicode="&#116;" d="M257 318c-26 0-66-7-66-25 0-14 21-24 13-29-8-5-21 14-32 14-12 0-22-11-22-22 0-34 50-62 107-62 58 0 105 28 105 62 0 34-47 62-105 62z m-41-47c0 5 7 9 15 9 8 0 15-4 15-9 0-5-7-9-15-9-8 0-15 4-15 9z m31-66c-9 0-15 6-15 12 0 6 6 11 15 11 8 0 15-5 15-11 0-7-7-12-15-12z m41 4c-8 0-15 6-15 12 0 6 7 11 15 11 9 0 15-5 15-11 0-7-7-12-15-12z m4 84c0 6 6 11 15 11 8 0 15-5 15-11 0-7-7-12-15-12-9 0-15 5-15 12z m32-66c-8 0-15 5-15 11 0 6 7 11 15 11 9 0 15-5 15-11 0-7-6-11-15-11z m8 29c-8 0-15 6-15 12 0 6 7 11 15 11 9 0 15-5 15-11 0-7-6-12-15-12z"/>
<glyph glyph-name="community" unicode="&#117;" d="M201 202c1 0 1 0 1 0 2 1 4 2 5 3 0 0 0 0 0 0-2 3-2 3 0 13 2 12 5 5 8 28 4 20-3 36-24 36-20 0-27-16-24-36 4-23 6-16 9-28 2-10 2-10-1-13-11-13-36-11-39-25 0-2-2-20-2-20l54 0c0 0 0 1 1 1 0 0 0 1 0 1 0 0 0 0 0 1 0 0 0 1 0 2 0 0 0 0 0 0 0 1 0 1 0 2 0 0 0 0 0 1 0 0 0 1 0 2 0 0 0 1 0 1 1 1 1 1 1 2 0 0 0 0 0 1 0 0 0 1 0 2 0 0 0 0 0 0 0 1 0 2 0 2 0 1 0 1 0 1 0 1 0 1 0 2 0 0 0 0 0 0 1 1 1 2 1 2 0 0 0 0 0 0 0 1 0 1 0 2 0 0 0 0 0 0 0 1 0 1 0 1 0 0 0 1 0 1 0 0 0 0 0 0 0 2 1 3 1 4 1 1 1 1 1 1 0 1 1 2 1 3 0 0 1 0 1 1 0 0 1 1 2 2 0 1 1 1 1 1 1 1 1 1 2 1 0 1 1 1 1 2z m209-23c-3 15-29 13-40 26-3 3-3 3-1 13 3 12 5 5 9 28 3 20-4 36-24 36-21 0-28-16-24-36 3-23 6-16 8-28 2-10 2-10 0-13 0 0-1 0-1 0 9-4 15-9 17-18 0-2 2-19 3-27l55 0c0 0-2 18-2 19z m-118 39c-3 3-3 3-1 17 3 15 6 5 11 35 4 25-4 47-31 47-26 0-35-22-31-47 5-30 8-20 12-35 2-14 2-14-1-17-14-18-46-14-50-33 0-2-2-25-2-25l147 0c0 0-2 23-3 25-3 19-37 15-51 33z"/>
<glyph glyph-name="connectarrow" unicode="&#118;" d="M508 198l-5 60-17-28c-258 194-474-19-474-19l13 9c210 161 396 45 453 1l-30-18z"/>
<glyph glyph-name="contactsensordoor" unicode="&#119;" d="M336 377l0-212-48 0 0-64-112 62 0 214 160 0z m-48-63l0-141 39 0 0 193-138 0z"/>
<glyph glyph-name="contactsensorwindow" unicode="&#120;" d="M176 346l0-161 113-62 0 65 47 0 0 158z m99-194l-86 49 0 122 86-47z m53 43l-39 0 0 96c0 0-57 30-85 45 36 0 123 0 123 0l0-141z"/>
<glyph glyph-name="cornerarrow" unicode="&#121;" d="M293 257l-67 69-7-7 62-63-62-63 7-7 67 69 2 1z"/>
<glyph glyph-name="cozifyen" unicode="&#122;" d="M111 199c0-1 0-1 0-1l-5-16c0 0 0 0 0 0 0-1 0-1 0-1 0 0-1 1-1 1l-5 16c0 0 0 0 0 1-1 0-1 0-1 0l-1 0c0 0 0 0 0 0-1-1-1-1-1-1l-5-16c0 0 0 0 0-1 0 0-1 0-1-1 0 1 0 1 0 1 0 1 0 1 0 1l-5 16c0 0 0 0 0 1 0 0 0 0-1 0l-2 0 7-23 2 0 6 17c0 1 0 1 0 1 0 0 0 0 1 1 0-1 0-1 0-2l6-17 2 0 7 23-2 0c0 0-1 0-1 0z m80 50c9 9 13 20 13 32 0 13-4 24-13 33-5 5-11 8-17 10l0-15c10-6 17-16 17-28 0-18-15-32-32-32-18 0-32 14-32 32 0 12 7 23 18 28l0 15c-3-1-6-2-8-3-8-4-13-10-17-17-4-7-6-14-6-23 0-12 4-23 13-31 8-10 19-14 32-14 13 0 24 4 32 13z m-7-50l-3 0 0-23 13 0 0 3-10 0 0 20z m-62-23l3 0 0 23-3 0z m36 0l14 0 0 3-11 0 0 7 9 0 0 3-9 0 0 7 11 0 0 3-14 0z m-14 10c1 0 2 1 2 1 1 0 2 1 2 1 1 1 1 2 1 2 0 1 1 1 1 2 0 1-1 2-1 3 0 1 0 1-1 2-1 0-2 1-3 1-1 0-2 0-4 0l-6 0 0-22 3 0 0 9 2 0c1 0 1 0 1 0 1 0 1 0 1 0l6-8c0-1 1-1 1-1l2 0-6 9c0 1-1 1-1 1z m-3 2l-3 0 0 8 3 0c2 0 3 0 4-1 1 0 2-1 2-3 0 0-1-1-1-1 0-1 0-1-1-2 0 0-1 0-2-1 0 0-1 0-2 0z m-66 74c-5-5-10-8-14-10-4-2-9-3-14-3-6 0-12 1-17 4-5 3-9 7-12 12-2 5-4 10-4 16 0 9 3 17 9 23 7 6 14 9 23 9 11 0 21-4 30-13l9 9c-5 6-11 10-18 13-6 3-13 5-20 5-9 0-17-2-24-6-7-4-13-10-17-16-4-7-6-15-6-23 0-14 4-25 13-33 9-9 20-13 33-13 7 0 14 1 20 4 6 2 12 6 18 13z m314 15l29 0 0 15-29 0 0 17 29 0 0 16-43 0 0-87 14 0 0 39z m83-39l14 0 0 38 26 49-15 0-17-32-18 32-15 0 25-49 0-38z m-306 98l-14 0 0-51 14 0z m-125-147l-12 0 0 10-4 0 0-23 4 0 0 11 12 0 0-11 3 0 0 23-3 0z m11-13l14 0 0 3-11 0 0 7 9 0 0 3-9 0 0 7 11 0 0 3-14 0c0 0 0-23 0-23z m-52 20l7 0 0-20 3 0 0 20 8 0 0 3-18 0z m425-7l-13 0 0 10-3 0 0-23 3 0 0 11 13 0 0-11 3 0 0 23-3 0z m61 10c0 0 0 0-1-1l-7-13c0-1 0-1-1-1 0 0 0-1 0-1 0 0 0 1 0 1-1 0-1 0-1 1l-8 13c0 1 0 1 0 1 0 0 0 0-1 0l-2 0 0-23 3 0 0 17c0 0 0 0 0 1 0 0 0 0 0 0l8-14c0 0 0-1 1-1l0 0c1 0 1 1 2 1l7 14c0 0 0 0 0-1 0 0 0 0 0 0l0-17 3 0 0 23-2 0c-1 0-1 0-1 0z m-153 0l-9-23 2 0c1 0 1 0 1 1 0 0 0 0 0 0l2 6 10 0 3-6c0 0 0 0 0 0 0-1 0-1 1-1l2 0-9 23z m-3-14l4 9c0 0 0 0 0 1 0 0 0 0 1 1 0-1 0-2 0-2l4-10-9 0z m32 1c1 0 2 1 3 1 0 0 1 1 1 1 1 1 1 2 2 2 0 1 0 1 0 2 0 1 0 2 0 3-1 1-1 1-2 2-1 0-2 1-3 1 0 0-2 0-3 0l-7 0 0-22 3 0 0 9 3 0c0 0 1 0 1 0 0 0 0 0 0 0l6-8c0-1 1-1 1-1l3 0-6 9c-1 1-1 1-2 1z m-3 2l-3 0 0 8 4 0c1 0 3 0 3-1 1 0 2-1 2-3 0 0 0-1-1-1 0-1 0-1-1-2 0 0 0 0-1-1-1 0-2 0-3 0z m-24 137l-15 0 0-87 15 0z m39-129l7 0 0-20 3 0 0 20 7 0 0 3-17 0z m80 0c-1 1-3 2-4 2-1 1-3 1-4 1-2 0-4 0-5-1-1 0-3-1-4-2-1-1-1-2-2-4 0-1-1-3-1-5 0-1 1-3 1-4 1-2 1-3 2-4 1-1 3-2 4-2 1-1 3-1 5-1 1 0 3 0 4 1 1 0 3 1 4 2 1 1 1 2 2 4 1 1 1 3 1 4 0 2 0 3-1 5-1 2-1 3-2 4z m-1-12c0-1-1-2-2-3 0-1-1-1-2-2-1 0-2 0-3 0-2 0-3 0-4 0-1 1-2 1-2 2-1 1-2 2-2 3 0 1-1 2-1 4 0 1 1 2 1 3 0 1 1 2 2 3 0 1 1 1 2 2 1 0 2 0 4 0 1 0 2 0 3 0 1-1 2-1 2-2 1-1 2-2 2-3 0-1 1-2 1-3 0-2-1-3-1-4z m-198 3c-1 1-1 1-2 1 0 1-1 1-2 1 0 0-1 1-2 1 0 0-1 0-2 0 0 1-1 1-1 1 0 1 0 1 0 2 0 1 0 1 0 1 0 1 0 1 1 2 0 0 1 0 1 0 1 1 1 1 2 1 1 0 1 0 2-1 0 0 1 0 1 0 1 0 1-1 1-1 1 0 1 0 1 0 0 0 0 0 0 0 0 0 0 0 1 1l0 1c0 1-1 1-2 2-1 0-3 0-4 0-1 0-2 0-3 0-1-1-2-1-2-2-1 0-1-1-1-2-1 0-1-1-1-2 0-1 0-2 1-3 0 0 0-1 1-1 0-1 1-1 1-1 1-1 2-1 2-1 1 0 2-1 2-1 1 0 2 0 2-1 1 0 1 0 1-1 1 0 1-1 1-1 0-1 0-2-1-2 0-1 0-1-1-2 0 0 0 0-1 0-1 0-1-1-2-1-1 0-2 1-2 1-1 0-1 0-2 0 0 1-1 1-1 1 0 0 0 1 0 1-1 0-1 0-1-1 0 0 0 0 0 0l-1-1c1-1 2-2 3-2 1-1 3-1 4-1 1 0 2 0 3 1 1 0 2 0 3 1 0 1 1 1 1 2 0 1 0 2 0 3 0 1 0 2 0 2 0 1-1 2-1 2z m-54-11l14 0 0 3-11 0 0 7 9 0 0 3-9 0 0 7 11 0 0 3-14 0z m84 11c-1 1-1 1-2 1 0 1-1 1-2 1 0 0-1 1-2 1 0 0-1 0-1 0-1 1-1 1-2 1 0 1 0 1 0 2 0 1 0 1 0 1 0 1 1 1 1 2 0 0 1 0 1 0 1 1 2 1 2 1 1 0 1 0 2-1 0 0 1 0 1 0 1 0 1-1 1-1 0 0 1 0 1 0 0 0 0 0 0 0 0 0 0 0 1 1l0 1c0 1-1 1-2 2-1 0-3 0-4 0-1 0-2 0-3 0-1-1-1-1-2-2-1 0-1-1-1-2-1 0-1-1-1-2 0-1 0-2 1-3 0 0 0-1 1-1 0-1 1-1 2-1 0-1 1-1 2-1 0 0 1-1 1-1 1 0 2 0 2-1 1 0 1 0 1-1 1 0 1-1 1-1 0-1 0-2-1-2 0-1 0-1-1-2 0 0 0 0-1 0-1 0-1-1-2-1-1 0-1 1-2 1-1 0-1 0-2 0 0 1 0 1-1 1 0 0 0 1 0 1-1 0-1 0-1-1 0 0 0 0 0 0l-1-1c1-1 2-2 3-2 1-1 3-1 4-1 1 0 2 0 3 1 1 0 2 0 3 1 0 1 1 1 1 2 0 1 1 2 1 3 0 1-1 2-1 2 0 1-1 2-1 2z m-50 0c-1 1-1 1-2 1 0 1-1 1-2 1 0 0-1 1-2 1 0 0-1 0-2 0 0 1-1 1-1 1 0 1 0 1 0 2 0 1 0 1 0 1 0 1 0 1 1 2 0 0 1 0 1 0 1 1 1 1 2 1 1 0 1 0 2-1 0 0 1 0 1 0 0 0 1-1 1-1 0 0 0 0 1 0 0 0 0 0 0 0 0 0 0 0 0 1l1 1c-1 1-2 1-3 2-1 0-2 0-3 0-1 0-2 0-3 0-1-1-2-1-2-2-1 0-1-1-2-2 0 0 0-1 0-2 0-1 0-2 0-3 1 0 1-1 2-1 0-1 1-1 1-1 1-1 2-1 2-1 1 0 2-1 2-1 1 0 2 0 2-1 1 0 1 0 1-1 1 0 1-1 1-1 0-1-1-2-1-2 0-1 0-1-1-2 0 0 0 0-1 0-1 0-1-1-2-1-1 0-2 1-2 1-1 0-1 0-2 0 0 1-1 1-1 1 0 0 0 1-1 1 0 0 0 0 0-1 0 0 0 0 0 0l-1-1c1-1 2-2 3-2 1-1 3-1 4-1 1 0 2 0 3 1 1 0 2 0 2 1 1 1 2 1 2 2 0 1 0 2 0 3 0 1 0 2 0 2 0 1-1 2-1 2z m0 123l32 0-32-72 51 0 0 14-31 0 33 72-53 0z m79-111c0 0 0 0 0-1l-8-13c0-1 0-1 0-1 0 0 0-1-1-1 0 0 0 1 0 1 0 0 0 0 0 1l-8 13c0 1 0 1-1 1 0 0 0 0 0 0l-2 0 0-23 2 0 0 17c0 0 0 0 0 1 0 0 0 0 0 0l8-14c0 0 1-1 1-1l1 0c0 0 1 1 1 1l8 14c0 0 0 0 0-1 0 0 0 0 0 0l0-17 2 0 0 23-2 0c0 0 0 0-1 0z m198-3l0 3-14 0 0-22 14 0 0 2-11 0 0 7 9 0 0 3-9 0 0 7 11 0z"/>
<glyph glyph-name="done" unicode="&#66;" d="M326 293l-83-83-44 44 13 12 31-31 70 71z"/>
<glyph glyph-name="favorite" unicode="&#68;" d="M339 304c-4 11-13 20-25 26-10 5-22 5-32 2-10-3-20-11-26-21-6 10-16 18-26 21-10 3-22 3-32-2-12-6-21-15-25-26-5-11-5-23 1-36 11-26 82-89 82-90 0 1 71 64 82 90 6 13 6 25 1 36z"/>
<glyph glyph-name="geotag" unicode="&#69;" d="M243 273c-7-4-9-12-6-19 4-7 13-9 20-6 7 4 8 13 5 20-5 7-12 9-19 5z m122-81l-87 150c-1 2-4 5-7 6l-49 13c0 1 0 1 0 2-11 39-41 44-43 45-3 1-6 1-9 1-5 0-9-2-12-4-6-7-13-13-12-35 1-21 16-33 30-40l-12-46c-1-3 0-7 2-9l85-148c4-6 12-9 19-5l91 52c5 4 7 12 4 18z m-181 166l-5-20c-12 6-24 17-25 33-1 14 6 23 10 28 1 0 3 1 6 1 2 0 4 0 7-1 0 0 25-3 34-35l-11 3c-7 2-14-3-16-9z m27-27c-1-1-2-1-3-1l1 0c1 0 1 1 2 1z m-5-15c-1 2-1 4-1 6 1 0 2 0 3 0 4 0 7 1 10 5 1 1 2 3 3 3 1 0 2-1 3-3 3-5 1-11-3-14-6-4-13-2-15 3z m86-129c-38 22-65 35-76 53-10 19-4 42 14 54 19 10 42 4 54-14 10-19 8-49 8-93z"/>
<glyph glyph-name="geothermalheatpump" unicode="&#70;" d="M256 381l0-1-1 1-129-82 10-14 16 10 0-128 17 0 0 139 87 56 89-57 0-138 17 0 0 127 14-9 10 14z m-65-203l11 0 0-30 14 0 0 30 12 0-18 22z m48 0l11 0 0-30 14 0 0 30 11 0-18 22z m47 0l11 0 0-30 15 0 0 30 10 0-18 22z"/>
<glyph glyph-name="group-create" unicode="&#71;" d="M251 441l1 0-1 4c-7 0-14 0-21-2l1-4c6 1 13 2 20 2z m-40-8l-2 3c-6-3-13-7-18-11l2-4c6 5 12 9 18 12z m81-168l1-4c7 3 13 7 19 12l-3 3c-5-4-11-8-17-11z m-117 23c5-5 10-11 16-15l2 3c-5 4-10 9-14 15z m76-31l0 0 0-5c8 0 15 1 22 2l-1 5c-7-2-14-2-21-2z m-90 111l-4 1c-2-7-3-14-3-22l4 0c0 8 1 15 3 21z m18 39l-4 2c-4-5-8-11-11-18l4-2c3 6 6 12 11 18z m30-146c7-3 13-5 21-7l0 4c-6 2-13 4-19 7z m118 27c5 6 9 12 12 18l-4 2c-3-6-7-12-11-17z m19 82c-1 7-4 14-7 21l-4-2c3-6 6-13 7-20z m-52 66c-7 3-14 6-21 8l-1-5c7-1 14-4 20-7z m48-108l4-1c2 7 3 14 3 21l-5 0c0-7 0-13-2-20z m-186-1c2-7 4-14 8-20l3 2c-3 6-5 12-6 19z m168 79l4 3c-5 6-10 11-16 16l-2-4c5-4 10-9 14-15z m-302-182c-5-6-8-12-12-19l4-2c3 7 7 12 11 18z m3-119l-3-3c4-5 10-11 15-15l3 3c-6 5-10 10-15 15z m31 146c-7-4-13-8-19-12l3-3c5 4 11 8 18 11z m42 6l0 0 0 4c-7 0-15-1-22-3l1-4c7 2 14 3 21 3z m-42-182c6-3 13-5 20-7l1 4c-7 2-13 4-20 7z m85 175c-7 4-14 6-21 8l-1-5c7-1 13-3 20-6z m-134-66l-4 1c-1-8-2-14-2-22l4 0c0 8 1 14 2 21z m-4-43c2-7 4-14 7-20l4 2c-3 6-5 12-7 19z m186 1l4-1c1 7 2 14 2 22l-4 0c0-7-1-14-2-21z m-18-37l3-3c4 6 8 12 12 18l-4 2c-3-6-7-12-11-17z m11 98c3-6 5-13 7-20l4 1c-2 7-4 14-7 21z m-84-134l0 0 0-4c7 0 14 1 21 3l-1 4c-6-2-13-3-20-3z m40 10l2-4c7 3 13 7 18 12l-2 3c-6-4-12-8-18-11z m36 144c-4 6-9 11-15 16l-3-4c6-4 11-9 15-14z m240 34l0 0 0 4c-7 0-15-1-22-3l1-4c7 2 14 3 21 3z m95-73c-2 7-4 14-7 21l-4-2c3-6 5-13 7-20z m-52 66c-7 4-14 6-21 8l-1-5c7-1 13-3 20-6z m-43-181l0 0 0-4c7 0 14 1 21 3l0 4c-7-2-14-3-21-3z m40 10l2-4c7 3 13 7 18 12l-2 3c-6-4-12-8-18-11z m-82 172c-7-4-13-8-19-12l3-3c6 4 11 8 18 11z m118-28c-4 6-9 11-15 16l-3-4c6-4 11-9 15-14z m-3-118l3-3c4 6 8 12 12 18l-4 2c-3-6-7-12-11-17z m20 58c0-7-1-14-2-21l4-1c1 7 2 14 2 22z m-135-88c6-3 13-5 20-7l1 4c-7 2-13 4-19 7z m-53 66c2-7 4-14 7-20l4 2c-3 6-5 12-7 19z m4 43l-4 1c-1-7-2-15-2-22l4 0c0 7 1 14 2 21z m15 40c-5-6-8-12-12-19l4-2c3 7 7 12 11 18z m3-119l-3-3c4-5 10-11 15-15l3 3c-5 5-10 10-15 15z m-85 267l-9 0 0-21-21 0 0-9 21 0 0-21 9 0 0 21 21 0 0 9-21 0z m-154-183l-9 0 0-22-21 0 0-8 21 0 0-22 9 0 0 22 21 0 0 8-21 0z m312 0l-9 0 0-22-21 0 0-8 21 0 0-22 9 0 0 22 21 0 0 8-21 0z"/>
<glyph glyph-name="guide" unicode="&#72;" d="M201 287l-27 25 27 25 45 0 0 15 26 0 0-15 53 0 0-50z m45-127l26 0 0 52-26 0z m65 114l-124 0 0-50 124 0 27 25z"/>
<glyph glyph-name="hub" unicode="&#73;" d="M265 295c0 0 0 0 0 0 1 1 1 1 0 1 0 1-1 1-2 1l-2-1c0 0 0 0 1 0l-2 0-7-2 3 0-4 0 7 2 0 0 4 1-3 1-6-2c-1 0-3-1-4-1-2 0-3 0-4 0 0 0 1 0 2 1 2 0 5 0 7 1l2 0c0 0-1 0-2 0-1 0-3 0-5 0-2-1-3-1-4-1-2-1-3-1-3-2 0 0 0 0 1 0-1-1-1-1-1-1 0-1 2-1 4-1 3 0 6 0 9 0 3 0 6 1 7 1 2 1 3 2 2 2z m-7-1l-2 0 7 2 1 0z m-16 2c0 1-1 1-3 1-1 0-3 0-5 0-2 0-4-1-5-1-2 0-3 0-5 0 0 0 0 0 1 0 0 0 1 0 2 1 1 0 3 0 5 0 2 1 4 1 6 1 2-1 3-1 3-1l3 0c0 0 0 1-1 1-1 0-2 0-3 0-2 0-4 0-6 0-1 0-3 0-5 0-2-1-3-1-5-1-2-1-3-1-3-2 0 0 0 0 1 0-1-1-2-1-2-1 1-1 2-1 5-1 1 0 2 0 4 0 2 0 3 0 6 0l0 1c-2 0-4 0-5 0-1 0-2 0-3 0-1 0-2 0-3 0 0 0 0 0 0 0 0 0 1 0 1 0 1 0 3 0 4 0 2 0 4 1 6 1l0 0c-2 0-3 0-4 0-2 0-3 0-4 0 0 0-1 0-1 0 0 0 0 0 0 0 2 1 4 1 6 1 2 0 4 0 5 0 2 0 3 0 4-1l3 1c0 0-1 0-2 0z m72-2l1 1-10 0-8-4 2 0-2-2 4 0 3 2 7 0 1 1-6 0 0 1 6-1 0 1 2 0 1 0-9 1 1 0z m90 6c0 0 0 0 0 0 0 0 0 0 0 0-1 0-1 1-1 1 0 0 0 0 0 0 0 0 0 0 0 0l-40 7c0 0 0 0 0 0 0 0 0 0 0 0l-111 3c-1 0-1 0-1 0l-118-37c0 0 0 0 0 0 0 0 0 0 0 0l-17-8c-1 0-1 0-1 0l-7-36c0 0 0 0 1 0 0-1 0-1 0-1l231-28c0 0 0 0 0 0 0 0 0 0 0 0 0 0 0 0 0 0l61 52c0 0 0 0 0 1l3 46c0 0 0 0 0 0l0 0c0 0 0 0 0 0z m-41 4l33-6-48-46-2 2-3 4-1 2z m-111 3l109-2-22-44 0 0-195 13z m-115-36l199-14 4-4c0 0 2-2 2-4l-219 17c4 2 14 5 14 5z m199-66l-223 28 5 29 226-17z m62 52l-56-49 7 38 50 49z m-60 37l-4 0-6-2-2 2-4 0 2-1-2 0 2-2-1-2 1 0-2-1 4 0 2 2 9 2-3 0-5-1 0 0z m-62-2l2 1-2 0 10 2-5 0 5 1-10 0-2 0 6-1-2 0-3 0-2-1 2 0-10-2 5 0-6-1 12-1 2 1-7 1 2 0z m2 2l2 0-7-1-2 0z m15 2l-9-5 2 0-2-1 3 0 9 4-2 0 2 1z"/>
<glyph glyph-name="hub-remote" unicode="&#74;" d="M215 257c0 0-1 0-1 0 1 1 2 1 1 1 0 1-1 1-2 1l-2-1c0 0 0 0 0 0l-1 0-7-2 3 0-4 0 6 2 1 0 4 1-3 1-6-2c-1 0-3-1-5-1-1 0-2 0-3 0 0 0 1 0 2 1 2 0 4 0 7 1l2 0c0 0-1 0-2 0-2 0-3 0-5 0-2-1-3-1-5-1-2-1-2-1-2-2 0 0 0 0 0 0 0 0-1-1 0-1 0-1 1-1 4-1 3 0 6 0 9 0 3 0 6 1 7 1 2 1 2 2 2 2z m-8-1l-1 0 6 2 2 0z m-15 2c-1 1-2 1-3 1-2 0-3 0-5 0-2 0-4-1-6-1-1 0-3 0-4 0 0 0 0 0 0 0 1 0 1 0 2 1 2 0 4 0 6 0 2 1 4 1 5 1 2-1 3-1 4-1l3 0c0 0-1 1-1 1-1 0-2 0-4 0-1 0-3 0-5 0-2 0-4 0-5 0-2-1-4-1-5-1-2-1-3-1-3-2 0 0 0 0 0 0 0 0-1-1-1-1 0-1 2-1 4-1 2 0 3 0 5 0 1 0 3 0 6 0l-1 1c-1 0-3 0-4 0-1 0-2 0-3 0-2 0-2 0-3 0 0 0 0 0 0 0 0 0 0 0 1 0 1 0 3 0 4 0 2 0 4 1 6 1l0 0c-2 0-4 0-5 0-1 0-2 0-3 0-1 0-1 0-2 0 1 0 1 0 1 0 2 1 3 1 5 1 2 0 4 0 6 0 2 0 3 0 3-1l3 1c0 0 0 0-1 0z m72-2l1 1-10 0-8-4 2 0-2-2 3 0 4 2 7 0 1 1-7 0 1 1 5-1 1 1 2 0 1 0-9 1 1 0z m119 93c-39 0-71-32-71-71 0-4 0-7 1-11 0 1 0 2 0 3l-112 3c0 0 0 0 0 0l-118-37c0 0 0 0 0 0-1 0-1 0-1 0l-17-8c0 0 0 0 0 0l-7-36c0 0 0 0 0 0 0-1 1-1 1-1l230-28c0 0 0 0 0 0 1 0 1 0 1 0 0 0 0 0 0 0l61 52c9-5 20-8 32-8 39 0 71 32 71 71 0 39-32 71-71 71z m-70-83c2-10 6-19 11-27l-27-25-1 2-3 4-2 2z m-111 3l109-2-22-44 0 0-196 13z m-115-36l199-14 4-4c0 0 1-2 2-4l-219 17c3 2 14 5 14 5z m199-66l-223 28 5 29 226-17z m6 3l7 38 28 27c5-7 11-13 19-17z m91 41c-37 0-67 30-67 67 0 37 30 67 67 67 37 0 67-30 67-67 0-37-30-67-67-67z m-157 43l2 1-2 0 10 2-5 0 5 1-11 0-1 0 6-1-3 0-2 0-2-1 1 0-10-2 6 0-6-1 12 0 1 0-7 1 3 0z m2 2l2 0-7-1-2 0z m60 0l-4 0-6-2-3 2-3 0 1-1-2 0 3-2-1-2 1 0-2-1 4 0 2 2 9 2-4 0-5-1 1 0z m-45 2l-9-5 2 0-2-1 3 0 9 4-2 0 2 1z m169 36c-1 0-3 0-4-1-4 12-15 20-27 20-15 0-27-10-29-24-9-1-15-8-15-17 0-9 7-17 16-17l59 0c11 0 20 8 20 19 0 11-9 20-20 20z m0-34l-59 0c-6 0-11 6-11 12 0 7 6 12 12 12 0 0 0 0 0 0l3 0 0 2c1 12 11 21 24 21 11 0 20-7 23-18l0-3 3 1c2 1 4 1 5 1 8 0 15-6 15-14 0-8-7-14-15-14z"/>
<glyph glyph-name="hub-settings" unicode="&#75;" d="M112 265l6 29 195-15c1 1 3 3 4 4l-195 15c4 2 15 5 15 5l186-13c2 1 3 2 5 3l-185 13 109 33 108-2-17-35c2 1 3 1 4 2l16 32 33-6-24-23c2 0 4 0 6 0l21 20-1-26c1-1 2-1 4-2l1 33c0 0 0 0 0 0l0 0c0 0 0 0 0 0 0 0 0 0 0 0 0 0 0 0 0 0 0 0 0 1 0 1 0 0 0 0 0 0 0 0 0 0 0 0l-40 7c0 0 0 0 0 0 0 0 0 0 0 0l-112 3c0 0 0 0 0 0l-119-37c0 0 0 0 0 0 0 0 0 0 0 0l-17-8c0 0 0 0 0 0l-7-36c0 0 0 0 0 0 0-1 0-1 1-1l191-23c0 0 0 0 0 0 0 1 0 2 0 3z m181 63l-9-5 2 0-3-1 4 0 9 4-3 0 3 1z m44-2l-3 0-6-2-3 2-3 0 1-1-2 0 3-2-2-2 1 0-1-1 4 0 2 2 9 2-4 0-5-1 0 0z m-23 0l1 1-10 0-8-4 2 0-2-2 3 0 4 2 7 0 1 1-7 0 1 1 5-1 1 1 1 0 1 0-8 1 1 0z m-58-2c3 0 5 1 7 1 2 1 2 2 1 2 0 0 0 0 0 0 1 1 1 1 1 1-1 1-1 1-2 1l-2-1c0 0 0 0 0 0l-1 0-7-2 3 0 6 2 2 0-7-2-6 0 7 2 1 0 4 1-3 1-6-2c-2 0-3-1-5-1-1 0-2 0-3 0 0 0 0 0 2 1 1 0 4 0 7 1l2 0c-1 0-1 0-2 0-2 0-4 0-5 0-2-1-4-1-5-1-2-1-3-1-2-2 0 0 0 0 0 0-1-1-1-1-1-1 1-1 2-1 5-1 3 0 6 0 9 0z m24 3l6 1-11 0-2 0 7-1-3 0-2 0-2-1 1 0-10-2 5 0-5-1 11-1 2 1-7 1 2 0 4 0 1 1-1 0 10 2z m-7-2l-3 0 7 1 3 0z m-42 3c2 0 4 0 6 0 2 0 3 0 3-1l3 1c0 0 0 0-1 0-1 1-2 1-3 1-2 0-4 0-5 0-2 0-4-1-6-1-1 0-3 0-4 0 0 0 0 0 0 0 0 0 1 0 2 1 2 0 3 0 6 0 2 1 3 1 5 1 2-1 3-1 3-1l4 0c-1 0-1 1-2 1-1 0-2 0-3 0-1 0-3 0-5 0-2 0-4 0-6 0-1-1-3-1-4-1-3-1-4-1-4-2 0 0 1 0 1 0-1-1-1-1-1-1 0-1 1-1 4-1 1 0 3 0 4 0 2 0 4 0 6 0l0 1c-2 0-3 0-4 0-2 0-3 0-4 0-1 0-2 0-2 0-1 0-1 0 0 0 0 0 0 0 0 0 2 0 3 0 5 0 1 0 3 1 6 1l0 0c-2 0-4 0-5 0-1 0-2 0-3 0-1 0-1 0-2 0 0 0 1 0 1 0 1 1 3 1 5 1z m195-97l0 18-13 4c-1 3-2 6-3 8l7 12-14 14-12-7c-2 1-5 2-8 3l-4 13-18 0-4-13c-3-1-6-2-8-3l-12 7-14-14 7-12c-1-2-3-5-4-8l-13-4 0-18 13-4c1-3 2-6 4-8l-7-12 14-14 12 7c2-1 5-3 8-4l4-13 18 0 4 13c3 1 6 2 8 4l12-7 14 14-7 12c1 2 2 5 3 8z m-56-23c-18 0-32 15-32 32 0 18 14 32 32 32 17 0 32-14 32-32 0-17-15-32-32-32z"/>
<glyph glyph-name="mainmenu-remote" unicode="&#76;" d="M373 248l-114 0c-17 0-31 16-31 34 0 17 12 31 29 33 5 26 28 45 55 45 24 0 45-15 53-37 3 0 5 1 8 1 21 0 38-17 38-38 0-21-16-37-38-38z m0 65c-3 0-7 0-10-2l-6-2-1 6c-5 21-23 35-44 35-24 0-43-17-46-41l0-4-5 0c0 0 0 0 0 0-13 0-23-11-23-23 0-13 10-23 21-23l114 0c16 0 28 12 28 27 0 15-13 27-28 27z m-253 8l0 13 116 0c-6-4-12-8-17-13z m96-60l-96 0 0 13 89 0c1-5 4-9 7-13z m62-60l-158 0 0 13 158 0z"/>
<glyph glyph-name="motiondetector" unicode="&#77;" d="M363 265c-36 5-54 19-60 22-6 4 3 12 9 39 8 27-18 21-35 24-16 2-17-37-17-38 0 0-2 1-23 3-25 3-40-20-47-31-7-10-1-22 6-27 7-4 22 21 33 29 10 8 22-6 16-15-20-22-27-58-27-58 0 0-22 2-44 1-21-1-17-26-7-31 10-5 68-12 72-1 5 10 5 33 12 28 7-4 27-42 35-57 8-16 32 6 28 20-5 14-32 56-37 68-5 12 6 20 11 21 4 2 12-7 20-10 7-4 24-8 32-9 33-2 30 22 23 22z m56 62l-11-15c14-14 22-33 22-53 0-21-8-40-22-53l11-15c17 17 28 41 28 68 0 26-11 50-28 68z m-25-28l-11-16c7-6 11-15 11-25 0-10-4-18-11-25l11-15c10 10 17 24 17 40-1 16-7 30-17 41z m-270 18l-12 17c-19-19-31-46-31-76 0-29 12-56 31-75l12 17c-15 15-24 35-24 59 0 23 9 43 24 58z m16-14c-12-11-19-27-19-44 0-18 7-34 19-45l11 17c-7 7-11 17-11 28 0 11 4 21 11 28z"/>
<glyph glyph-name="music" unicode="&#78;" d="M342 375l-153-40 0-132c-42 9-75-18-65-45 14-36 86-23 84 25 0 20 0 128 0 128l121 29 0-117c-45 11-77-16-66-43 14-36 86-23 84 25 0 17-5 170-5 170z"/>
<glyph glyph-name="my-settings" unicode="&#79;" d="M252 254c-3 4-3 4-1 20 4 17 8 6 13 41 5 29-5 54-35 54-31 0-41-25-36-54 6-35 9-24 13-41 2-16 2-16-1-20-16-19-53-15-57-37-1-3-3-29-3-29l120 0c-3 8-5 17-5 26 0 11 3 21 7 30-6 2-11 6-15 10z m134-49l0 19-12 4c-1 3-2 5-4 8l7 12-13 13-12-7c-3 2-5 3-8 4l-4 12-19 0-4-12c-3-1-5-2-8-4l-12 7-13-13 6-12c-1-3-2-5-3-8l-14-4 0-19 14-4c1-3 2-5 3-8l-6-12 13-13 12 6c3-1 5-2 8-3l4-14 19 0 4 14c3 1 5 2 8 3l12-6 13 13-7 12c2 3 3 5 4 8z m-56-22c-17 0-31 14-31 31 0 18 14 32 31 32 18 0 32-14 32-32 0-17-14-31-32-31z"/>
<glyph glyph-name="notification" unicode="&#80;" d="M166 322l0-132 180 0 0 132z m169-11l-79-65-79 65z m0-110l-158 0 0 93 79-63 79 64z"/>
<glyph glyph-name="phone" unicode="&#81;" d="M323 390l-134 0c-5 0-9-3-9-8l0-252c0-5 4-8 9-8l134 0c5 0 9 3 9 8l0 252c0 5-5 8-9 8z m-64-257c-9 0-16 7-16 15 0 9 7 16 16 16 8 0 15-7 15-16 0-8-7-15-15-15z m59 41l-125 0 0 192 125 0 0-192z"/>
<glyph glyph-name="player-next" unicode="&#82;" d="M310 354l0-82-164 100 0-232 164 100 0-75 49 0 0 189z"/>
<glyph glyph-name="player-pause" unicode="&#83;" d="M182 136l43 0 0 240-43 0z m98 0l43 0 0 240-43 0z"/>
<glyph glyph-name="player-play" unicode="&#84;" d="M187 134l201 122-201 123z"/>
<glyph glyph-name="player-prev" unicode="&#85;" d="M359 372l-164-100 0 82-49 0 0-189 49 0 0 75 164-100z"/>
<glyph glyph-name="poweroutlet" unicode="&#86;" d="M193 305c0-81 52-76 52-106l0-60 22 0 0 61c0 29 52 24 52 105 0 0-109 0-126 0z m42 50c0 5-4 9-10 9-5 0-9-4-9-9l0-37 19 0 0 37z m61 0c0 5-5 9-10 9-5 0-10-4-10-9l0-37 19 0 0 37z"/>
<glyph glyph-name="queue" unicode="&#87;" d="M266 349c0 0-1 0-1 0-5 0-9-5-9-10 0-5 2-9 10-10l0 0c38 0 72-33 72-73 0-40-33-73-74-73-38 0-70 29-73 67l17 0-26 43-27-43 17 0c2-48 43-87 92-87 51 0 93 42 93 93 0 50-41 92-91 93z m-18-135c27 2 32 23 32 24 0 1 0 65 0 65l-15 0 0-58c0 0-34 2-33-21 1-9 12-10 16-10z"/>
<glyph glyph-name="radio" unicode="&#88;" d="M355 293l-138 0 81 46c5 3 7 9 4 14-3 6-9 7-14 5l-116-65-15 0c-4 0-8-3-8-7l0-125c0-5 4-8 8-8l198 0c4 0 8 3 8 8l0 125c0 4-4 7-8 7z m-149-13c5 0 9-4 9-10 0-5-4-9-9-9-6 0-10 4-10 9 0 6 4 10 10 10z m-28 0c5 0 9-4 9-10 0-5-4-9-9-9-5 0-10 4-10 9 0 6 5 10 10 10z m53-111l-65 0 0 11 65 0z m0 18l-65 0 0 11 65 0z m0 17l-65 0 0 11 65 0z m0 17l-65 0 0 12 65 0z m0 18l-65 0 0 11 65 0z m68-65c-28 0-50 22-50 50 0 27 22 50 50 50 27 0 50-23 50-50 0-28-23-50-50-50z m0 65c-8 0-15-7-15-15 0-8 7-15 15-15 8 0 14 7 14 15 0 8-6 15-14 15z"/>
<glyph glyph-name="refresh" unicode="&#89;" d="M289 208c-10-7-22-10-34-10-1 0-3 0-4 0-1 0-2 0-2 0-2 0-3 1-4 1-1 0-2 0-2 0-1 1-3 1-4 1 0 0-1 1-1 1-2 0-3 1-4 1-1 0-1 0-1 1-2 0-3 1-5 2 0 0 0 0 0 0-5 2-9 6-13 10 0 0 0 0 0 0-2 1-3 2-4 4 0 0 0 0-1 1-8 10-12 22-12 36l15 0-25 37-24-37 15 0c0-16 5-31 14-43 0-1 0-1 0-1 1-1 2-2 3-4 0 0 1-1 1-1 1-2 3-3 4-5 1 0 1 0 1 0 5-5 11-10 17-13 0 0 0 0 1-1 1-1 3-1 5-2 1 0 1-1 2-1 1-1 3-1 5-2 0 0 1 0 2-1 1 0 3 0 4-1 1 0 2 0 3 0 1 0 1-1 2-1 1 0 3 0 4 0 0 0 1 0 1 0 3-1 6-1 8-1 16 0 31 5 44 14 4 3 5 9 2 13-3 4-8 5-13 2z m44 48c0 16-5 31-14 43 0 1 0 1 0 1-1 2-2 3-3 4-1 1-1 1-1 1-8 9-17 17-28 21-1 1-1 1-1 1-2 1-4 1-6 2 0 0-1 0-2 1-1 0-3 0-5 1-1 0-1 0-2 0-1 0-1 1-2 1-1 0-2 0-3 0-1 0-2 0-3 0-2 1-4 1-6 1 0 0-1 0-1 0 0 0 0 0 0 0-16 0-31-5-44-14-4-3-5-9-2-13 3-4 8-5 13-2 10 7 21 10 33 10 2 0 4 0 6 0 0 0 1 0 1 0 2 0 3 0 4-1 1 0 1 0 2 0 1 0 3-1 4-1 0 0 1 0 1-1 2 0 3-1 5-1 0 0 0 0 0 0 9-4 16-10 22-17 0 0 0 0 0 0 8-10 13-23 13-37l-15 0 25-37 24 37-15 0z"/>
<glyph glyph-name="repeat" unicode="&#90;" d="M294 189l-76 0c-16 0-29 13-29 29l32 0-46 60-47-60 32 0c0-32 26-58 58-58l76 0c32 0 58 26 58 58l-29 0c0-16-13-29-29-29z m-76 134l76 0c16 0 29-13 29-29l-32 0 46-59 47 59-32 0c-1 32-26 58-58 58l-76 0c-32 0-58-26-58-58l29 0c0 16 13 29 29 29z"/>
<glyph glyph-name="repeat-1" unicode="&#48;" d="M368 218l0 0 0 76c-1 32-26 58-58 58l-76 0c-32 0-57-26-57-58l28 0c0 16 13 29 29 29l76 0c16 0 29-13 29-29l1-76-1 0c0-16-13-29-29-29l-76 0c-16 0-29 13-29 29l32 0-46 60-47-60 33 0c0-32 25-58 57-58l76 0c28 0 52 21 57 48 0 0 1 7 1 10z"/>
<glyph glyph-name="repeat-all" unicode="&#49;" d="M320 273l-76 0c-16 0-29 13-29 29l32 0-46 60-46-60 32 0c0-31 26-57 57-57l76 0c32 0 58 26 58 57l-28 0c0-16-13-29-30-29z m-76 135l76 0c16 0 30-13 30-30l-32 0 46-59 46 59-32 0c0 32-26 58-58 58l-76 0c-31 0-57-26-57-58l28 0c0 16 13 30 29 30z"/>
<glyph glyph-name="rule" unicode="&#50;" d="M165 234l-20-18-19 20-9-8 19-20-21-18 8-9 20 18 19-20 9 8-19 20 21 18z m230-15c-4 11-14 18-25 18-3 0-6 0-9-2-7-2-12-7-15-13-3-7-4-14-2-21 4-11 15-18 26-18 3 0 6 1 9 2 14 5 21 20 16 34z m-20-23c-2 0-4-1-5-1-6 0-12 4-14 10-3 8 1 16 9 19 2 0 3 1 5 1 6 0 12-4 14-10 2-8-1-17-9-19z m-20 58l-7 48-14-12c-28 31-58 46-87 43-57-5-95-69-97-72l11-6c0 0 36 61 87 66 25 2 51-10 76-38l-14-11z"/>
<glyph glyph-name="scene" unicode="&#51;" d="M152 225l12-10 39 51-12 10z m65 88c-9 0-17-7-17-16 0-10 8-17 17-17 9 0 16 7 16 17 0 9-7 16-16 16z m89-97c-9 0-16-7-16-16 0-9 7-16 16-16 9 0 17 7 17 16 0 9-8 16-17 16z m11 14l13-8 41 73-13 8z m84 106c-3 8-11 13-20 13-2 0-5 0-7-1-11-4-16-15-13-26 3-9 11-14 20-14 2 0 4 0 7 1 5 2 9 6 12 11 2 5 2 10 1 16z m-10-12c-1-3-3-5-6-6-1 0-3 0-4 0-5 0-9 3-11 7-2 6 1 13 7 15 1 0 3 0 4 0 5 0 9-3 11-7 1-3 1-6-1-9z m-240-115l-17-15-15 17-7-7 15-17-17-15 7-8 17 16 15-17 7 6-15 17 17 16z m93 70l-11-10 47-52 11 10z"/>
<glyph glyph-name="search" unicode="&#52;" d="M315 177l-38 38c-10-7-22-11-36-11-36 0-65 30-65 66 0 36 29 66 65 66 37 0 66-30 66-66 0-13-3-25-10-35l38-38c2-1 1-6-3-10l-6-6c-4-4-9-6-11-4z m-26 93c0 26-22 47-48 47-26 0-47-21-47-47 0-26 21-47 47-47 26 0 48 21 48 47z"/>
<glyph glyph-name="sleep" unicode="&#53;" d="M214 213l0 0 182 0 0 0c0 23-26 38-65 38l-51 0c-39-1-66-16-66-38z m219 74l-28 0 0-83-249 0 0 83-30 0 0-149 30 0 0 28 249 0 0-28 29 0 0 149z m-250-32c-12 0-22-9-22-21 0-12 10-22 22-22 12 0 22 10 22 22 0 12-10 21-22 21z m36 128l-4-40c0 0 0-1 0-1 0 0 0-1 1-1l2-3 29 16-3 6-20-11 3 39c0 1 0 2 0 3l-2 3-29-17 4-5z m-41-23l-29 7 39 33c1 1 2 2 2 3l1 4-41 11-2-8 28-7-40-34c0 0-1 0-1-1 0 0 0-1 0-1l-2-4 43-12z m-129-27l29 0-30-42c0-1 0-1-1-2 0 0 0 0 0-1l0-5 44 0 0 9-30 0 30 42c1 1 1 2 1 4l0 4-43 0 0-9z"/>
<glyph glyph-name="smokesensor" unicode="&#54;" d="M375 133l-10 11c31 29 49 69 49 114 0 87-70 158-158 158-88 0-158-71-158-158 1-45 19-85 49-114l-10-10c-33 31-54 75-54 124 0 95 78 172 173 172 95 0 173-77 173-172 0-49-21-93-54-125z m-158 138c2 3 3 6 5 8 1 1 2 3 3 4 1 1 2 2 2 2 0 0 0-1-1-2 0-1-1-3-1-5-1-3-1-5-1-8 0-3 0-6 0-10 0-3 1-7 3-11 0-3 3-6 5-10 2-3 5-7 8-9 2-2 3-3 5-4l3-2c0 0 0-1 1-1l2-1c1-1 2-1 3-2 1-1 3-2 4-3 2-1 4-4 6-6 1-2 3-5 5-7 1-3 2-6 2-9 1-6 1-11-1-16-1-5-3-9-6-12-2-4-5-6-6-9-3-2-5-4-6-6-2-1-4-2-4-3-1-1-2-1-2-1 0 0 0 1 1 2 1 1 1 2 2 4 1 2 3 4 4 7 1 2 2 6 4 9 1 4 2 7 2 11 0 3 0 8 0 11-1 2-2 3-3 5-1 2-3 3-3 5-3 3-7 6-10 9l-2 0c-1 0-1 1-2 1-1 1-2 2-3 3-3 1-4 3-7 5-2 1-4 4-6 6-1 2-3 4-5 6-2 5-4 11-5 16-1 5-1 10 0 14 1 2 3 7 4 9z m36-23c0-2 1-4 2-5 4-6 9-10 11-12 2-2 3-3 3-4 1 0 2 0 2 0 0 0-2 0-7 2-4 2-9 5-15 10-2 3-6 6-8 9-3 5-5 9-6 15-1 2-1 6-1 8 0 1 0 3 0 3 0 2 0 3 0 5 0 1 0 2 1 4 0 2 1 2 1 4 1 3 1 5 2 9 3 5 6 10 10 13 1 2 3 3 5 5 1 2 3 3 4 5l1 1 1 1c0 1 0 1 1 2 1 2 2 4 3 4 1 4 2 7 3 11 0 1 1 3 1 5 0 1 0 3 0 4 0 2 0 5 0 7 0 3 0 5 0 5 0 1-6 6-6 6 0 0 8-6 8-8 0-1 1-3 2-4 1-2 2-4 4-8 0-3 1-7 1-11 0-4 0-8-1-13 0-3-1-5-2-7-1-1-1-2-2-3 0-1-1-1-1-2l-1-1c-2-2-3-3-5-6-1-1-2-3-4-5-2-3-5-7-7-10l0-2c0 0 0 0-1-1 0-1-1-2-1-3 0-1-1-1-1-3 0-1-1-2-1-4 0 0 0-1-1-3 0-1 0-2 0-3 0-2-1-4 0-5 0-4 0-8 2-11 1-2 2-4 3-4z"/>
<glyph glyph-name="speaker" unicode="&#55;" d="M226 399c-1 5-4 26-4 26l28 9 2-20c-9 1-16-8-12-15 4-9 22-4 20 9 0 4-5 43-5 43l-42-14 5-32c-8 0-17-8-13-15 5-9 22-4 21 9z m84-12c0 3 0 14 0 23 6-3 11-6 10-13 13 15-10 19-10 26l-6 0 0-30c-7 2-14-5-12-10 2-9 18-6 18 4z m5-42l-125 0c-6 0-12-5-12-11l0-179c0-6 6-11 12-11l125 0c6 0 11 5 11 11l0 179c-1 7-5 11-11 11z m3-182c0-5-4-9-10-9l-112 0c-5 0-10 4-10 9l0 164c0 5 5 9 10 9l112 0c6 0 10-4 10-9 0 0 0-164 0-164z m-65 114c11 0 20 9 20 19 0 11-9 20-20 20-11 0-19-9-19-20-1-10 8-19 19-19z m0 34c8 0 14-7 14-15 0-8-6-14-14-14-8 0-14 6-14 14-1 8 6 15 14 15z m0-53c-26 0-46-21-46-46 0-26 20-47 46-47 26 0 47 21 47 47 0 25-22 46-47 46z m0-85c-21 0-39 18-39 39 0 21 17 38 38 38 22 0 39-17 39-38 1-21-17-39-38-39z m0 50c-6 0-11-5-11-11 0-7 5-12 11-12 6 0 12 5 12 12-1 6-6 11-12 11z"/>
<glyph glyph-name="state" unicode="&#56;" d="M347 211l-31 0 0 26c0 7-26 7-26 0l0-26-125 0c-4 0-7-3-7-6 0-3 3-6 7-6l125 0 0-26c0-7 26-7 26 0l0 26 31 0c4 0 7 3 7 6 0 3-3 6-7 6z m-182 90l40 0 0-26c0-7 25-7 25 0l0 26 117 0c4 0 7 3 7 6 0 3-3 6-7 6l-117 0 0 26c0 7-25 7-25 0l0-26-40 0c-4 0-7-3-7-6 0-4 3-6 7-6z"/>
<glyph glyph-name="stereo-speakers" unicode="&#57;" d="M310 391c-1 5-4 25-4 25l27 10 3-20c-9 1-16-8-12-15 4-9 22-4 20 9 0 4-5 43-5 43l-42-14 5-32c-8 0-16-8-13-15 5-9 22-3 21 9z m39-174c-6 0-12-5-12-11 0-7 6-12 12-12 6 0 11 5 11 12-1 6-6 11-11 11z m44 162l0 23c6-3 11-6 10-13 13 15-10 19-10 26l-6 0 0-29c-7 1-14-6-12-11 3-9 18-6 18 4z m-44-128c-26 0-46-20-46-45 0-26 20-46 46-46 25 0 46 20 46 46 0 25-22 45-46 45z m0-83c-21 0-39 17-39 38 0 21 17 37 38 37 21 0 38-16 38-37 1-21-17-38-37-38z m61 170l-124 0c-6 0-11-5-11-12l0-176c0-6 5-12 11-12l124 0c6 0 11 6 11 12l0 176c-1 8-5 12-11 12z m3-180c0-5-4-10-10-10l-111 0c-5 0-9 5-9 10l0 161c0 6 4 10 9 10l111 0c6 0 10-4 10-10z m-64 112c10 0 19 9 19 19 0 11-9 20-19 20-11 0-20-9-20-20-1-10 8-19 20-19z m0 33c8 0 14-6 14-14 0-8-6-14-14-14-8 0-14 6-14 14-1 8 6 14 14 14z m-223 76l0 23c6-3 11-6 10-13 13 15-10 19-10 26l-6 0 0-29c-7 1-14-6-12-11 3-9 18-6 18 4z m64 12c-1 5-4 25-4 25l28 10 2-20c-8 1-15-8-12-15 5-9 22-4 20 9 0 4-5 43-5 43l-41-14 4-32c-8 0-16-8-12-15 4-9 22-3 20 9z m-25-121c11 0 19 9 19 19 0 11-8 20-19 20-11 0-19-9-19-20-1-10 8-19 19-19z m0 33c8 0 14-6 14-14 0-8-6-14-14-14-8 0-14 6-14 14-1 8 6 14 14 14z m61 35l-124 0c-6 0-11-5-11-12l0-176c0-6 5-12 11-12l124 0c6 0 11 6 11 12l0 176c0 8-5 12-11 12z m3-180c0-5-4-10-9-10l-111 0c-6 0-10 5-10 10l0 161c0 6 4 10 10 10l111 0c5 0 9-4 9-10z m-64 93c-26 0-46-20-46-45 0-26 20-46 46-46 26 0 46 20 46 46 0 25-21 45-46 45z m0-83c-21 0-39 17-39 38 0 21 17 37 38 37 21 0 38-16 38-37 1-21-17-38-37-38z m0 49c-6 0-11-5-11-11 0-7 5-12 11-12 6 0 11 5 11 12 0 6-6 11-11 11z m1-99l-6 0 0-49 27 0 0 6-21 0z m189-27c2 0 4 1 5 2 1 0 3 1 4 3 1 1 2 2 2 4 1 1 1 3 1 4 0 3 0 4-1 6-1 2-2 3-3 4-2 2-4 2-6 3-2 1-5 1-8 1l-14 0 0-49 7 0 0 21 5 0c1 0 1-1 2-1 0 0 1 0 1-1l13-18c0 0 1-1 3-1l5 0-14 20c-1 0-1 1-2 2z m-6 3l-7 0 0 19 7 0c4 0 7-1 9-2 2-2 3-4 3-7 0-1-1-3-1-4-1-1-1-2-2-3-1-1-3-2-4-2-2 0-3-1-5-1z"/>
<glyph glyph-name="sunrise" unicode="&#33;" d="M398 238l-32 32 0-63-11 0-1 63-31-32-8 9 43 44 2-2 2 2 44-44z m-143-24c0 3 0 6 0 9l35 0 0-17-35 0c0 2 0 5 0 8z m-23 47l24 25 13-13-25-25c-3 5-7 10-12 13z m9-55l-18 0c1 2 1 5 1 8 0 15-12 27-27 27-14 0-26-12-26-27 0-3 0-6 1-8l-18 0c-1 2-1 5-1 8 0 25 20 45 44 45 25 0 45-20 45-45 0-3 0-6-1-8z m-52 66l0 34 18 0 0-34c-3 0-6 0-10 0-3 0-5 0-8 0z m-63 1l13 13 24-25c-5-3-9-8-12-12z m13-59c0-3 1-6 1-8l-34 0 0 17 34 0c0-3-1-6-1-9z"/>
<glyph glyph-name="sunset" unicode="&#34;" d="M406 249l-42-44-2 2-2-2-45 44 8 8 33-31-1 63 12 0 0-64 31 32z m-151-34c0 3 0 6 0 9l35 0 0-18-35 0c0 3 0 6 0 9z m-23 47l24 24 13-12-25-25c-3 5-7 9-12 13z m9-56l-18 0c1 3 1 6 1 9 0 15-12 27-27 27-14 0-26-12-26-27 0-3 0-6 1-9l-18 0c-1 3-1 6-1 9 0 25 20 45 44 45 25 0 45-20 45-45 0-3 0-6-1-9z m-52 66l0 35 18 0 0-35c-3 1-7 1-10 1-3 0-6 0-8-1z m-63 2l13 12 24-24c-5-4-9-8-12-13z m13-59c0-3 1-6 1-9l-34 0 0 18 34 0c0-3-1-6-1-9z"/>
<glyph glyph-name="temperature" unicode="&#35;" d="M256 344c0 4 3 7 6 7l57 0c3 0 6-3 6-7 0-3-3-6-6-6l-57 0c-3 0-6 3-6 6z m6-36l36 0c3 0 6 3 6 7 0 4-3 6-6 6l-36 0c-3 0-6-3-6-6 0-4 3-7 6-7z m0-29l36 0c3 0 6 3 6 7 0 4-3 6-6 6l-36 0c-3 0-6-3-6-6 0-4 3-7 6-7z m57-16l-57 0c-3 0-6-3-6-6 0-4 3-7 6-7l57 0c4 0 7 3 7 7 0 3-3 6-7 6z m-58-80c0-21-17-38-38-38-20 0-37 17-37 38 0 10 4 19 11 26 2 1 2 2 3 4 1 1 1 5 1 6 0 2 0 66 0 66l0 60c1 12 10 22 22 22 12 0 22-10 22-22l0-60c0 0 0-65 0-66 0-2 0-5 2-6 1-2 1-3 3-4 6-6 11-16 11-26z m-14 0c0 7-4 14-10 18-4 4-5 6-5 12l0 72-17 0 0-72c0-6-1-9-5-12-6-4-10-11-10-18 0-13 11-24 23-24 13 0 24 11 24 24z"/>
<glyph glyph-name="thermostat" unicode="&#36;" d="M375 133l-10 11c31 29 49 69 49 114 0 87-70 158-158 158-88 0-157-71-157-158 0-45 18-85 48-114l-10-10c-33 31-54 75-54 124 0 95 78 172 173 172 95 0 173-77 173-172 0-49-21-93-54-125z m-132 139l0 104c0 8 5 14 13 14 8 0 13-6 13-14l0-105c6-4 11-11 11-19 0-13-11-24-24-24-13 0-24 10-24 24 0 9 5 16 11 20z m7 38c4 0 3 0 11 0l0 64c0 3-2 6-6 6-3 0-6-3-6-6l0-64z m36 61l14 0c2 0 4-1 4-4 0-2-2-4-4-4l-14 0c-2 0-4 2-4 4 1 3 3 4 4 4z m0-17l14 0c2 0 4-2 4-5 0-2-2-4-4-4l-14 0c-2 0-4 2-4 4 0 3 3 5 4 5z m0-20l14 0c2 0 4-1 4-4 0-3-2-4-4-4l-14 0c-2 0-4 1-4 4 1 3 3 4 4 4z m0-19l14 0c2 0 4-2 4-4 0-3-2-5-4-5l-14 0c-2 0-4 2-4 5 1 2 3 4 4 4z m0-19l14 0c2 0 4-1 4-4 0-2-2-4-4-4l-14 0c-2 0-4 2-4 4 1 3 3 4 4 4z"/>
<glyph glyph-name="time" unicode="&#37;" d="M319 233l-79 0 0 88 20 0 0-67 59 0z m-63 125c-56 0-102-46-102-102 0-56 46-102 102-102 56 0 102 46 102 102 0 56-46 102-102 102m0 16c65 0 118-53 118-118 0-65-53-118-118-118-65 0-118 53-118 118 0 65 53 118 118 118z"/>
<glyph glyph-name="humiditysensor" unicode="&#38;" d="M375 133l-10 11c31 29 49 69 49 114 0 87-70 158-158 158-88 0-157-71-157-158 0-45 18-85 48-114l-10-10c-33 31-54 75-54 124 0 95 78 172 173 172 95 0 173-77 173-172 0-49-21-93-54-125z m-36 95l-2 2c-9 5-19 6-27 0l-3-2c-5-3-11-5-17-5-7 0-14 3-20 7-8 7-20 7-28 0l-1-1c-12-8-27-8-38 0l-2 2c-8 6-19 6-27 0l-5-3c-11-7-27-7-38 1l-10 8c-1 5-1 10-2 14l2 3 16-12c9-6 20-7 28-1l3 2c11 7 26 7 38 0l1-2c9-6 20-6 28 0l1 1c12 8 27 8 39-1 8-6 19-7 27-1l4 3c11 7 25 7 36 0l2-2c9-6 21-5 28 1l16 12c0-6-1-12-2-18l-8-7c-12-8-27-8-39-1z m-213-15l11-8c8-5 19-6 27 0l3 1c11 8 26 8 38 0l1-1c9-6 20-6 28 0l1 0c12 9 27 9 39 0 8-6 19-7 27-1l4 2c11 8 25 8 36 0l3-1c8-6 20-5 27 0l7 6c-3-9-7-16-12-24-9-3-19-2-28 4l-3 2c-8 5-18 6-27 0l-3-3c-5-3-12-5-18-5-7 0-13 3-19 7-9 7-20 7-29 0l-1-1c-11-8-27-8-38 0l-1 2c-9 6-20 6-28 0l-3-2c-9-7-21-7-31-3-3 8-7 16-11 25z"/>
<glyph glyph-name="lock" unicode="&#39;" d="M326 297l-8 0 0 27c-2 32-29 58-62 58-34 0-61-26-62-58l0-27-8 0c-9 0-16-4-16-16l0-106c0-4 7-11 16-11l140 0c9 0 16 7 16 16l0 101c-1 9-8 16-16 16z m-58-71l0-24c0-4-4-7-8-7l-8 0c-4 0-8 3-8 7l0 24c-4 3-8 9-8 16 0 10 9 19 20 19 10 0 19-9 19-19 1-6-3-12-7-16z m-55 71l0 23c0 24 19 43 43 43 23 0 42-19 42-43l0-23z"/>
<glyph glyph-name="mainmenu" unicode="&#40;" d="M121 335l0-13 157 0 0 13z m0-72l157 0 0 12-157 0z m0-60l157 0 0 13-157 0z"/>
<glyph glyph-name="playlist" unicode="&#41;" d="M241 340l0-26 118 0 0 26z m0-66l118 0 0 27-118 0z m0-38l118 0 0 26-118 0z m-31 104l0-116c0 0-58 2-57-36 2-15 21-17 27-16 47 2 48 39 48 40 0 2 0 128 0 128z"/>
<glyph glyph-name="plus" unicode="&#42;" d="M334 261l-73 0 0 73-10 0 0-73-73 0 0-10 73 0 0-73 10 0 0 73 73 0z"/>
<glyph glyph-name="power" unicode="&#43;" d="M322 314c-10 10-22 18-35 22l0-33c20-11 34-33 34-58 0-37-29-67-66-67-36 0-66 30-66 67 0 26 15 49 37 59l0 32c-6-2-12-4-17-7-15-9-26-20-35-35-8-14-12-30-12-47 0-26 9-49 27-68 18-18 40-28 67-28 27 0 48 9 67 28 18 18 27 40 27 67 0 27-9 49-28 68z m-51 47l-29 0 0-107 29 0c0 0 0 107 0 107z"/>
<glyph glyph-name="settings" unicode="&#44;" d="M350 241l0 32-21 6c-2 5-4 9-6 13l11 20-22 22-20-11c-4 3-8 4-13 6l-6 21-32 0-6-21c-5-2-9-4-13-6l-20 11-22-22 10-20c-2-4-4-8-6-13l-22-6 0-32 22-6c2-5 4-9 6-13l-11-20 23-22 20 10c4-2 8-4 13-6l6-22 32 0 6 22c5 2 9 4 13 6l20-11 22 23-11 20c3 4 4 8 6 13z m-93-37c-29 0-53 24-53 53 0 29 24 53 53 53 29 0 53-24 53-53 0-29-24-53-53-53z"/>
<glyph glyph-name="shades" unicode="&#45;" d="M330 386l0 1-6 0 0-1-175 0 0-261 214 0 0 261z m-21-16l15 0 0-3-15 0z m0-7l15 0 0-3-15 0z m0-7l15 0 0-4-15 0z m0-8l15 0 0-3-15 0z m0-7l15 0 0-3-15 0z m0-8l15 0 0-3-15 0z m0-7l15 0 0-3-15 0z m0-8l15 0 0-2-15 0z m0-7l15 0 0-2-15 0z m0-7l15 0 0-3-15 0z m0-7l15 0 0-3-15 0z m0-8l15 0 0-4-15 0z m0-7l15 0 0-3-15 0z m0-8l15 0 0-2-15 0z m0-7l15 0 0-1z m-51 103l49 0 0-3-49 0c0 0 0 3 0 3z m0-7l49 0 0-3-49 0c0 0 0 3 0 3z m0-7l49 0 0-4-49 0c0 0 0 4 0 4z m0-8l49 0 0-3-49 0c0 0 0 3 0 3z m0-7l49 0 0-3-49 0c0 0 0 3 0 3z m0-8l49 0 0-3-49 0c0 0 0 3 0 3z m0-7l49 0 0-3-49 0c0 0 0 3 0 3z m0-8l49 0 0-2-49 0c0 0 0 2 0 2z m0-7l49 0 0-2-49 0c0 0 0 2 0 2z m0-7l49 0 0-3-49 0c0 0 0 3 0 3z m0-7l49 0 0-3-49 0c0 0 0 3 0 3z m0-8l49 0 0-4-49 0c0 0 0 4 0 4z m0-7l49 0 0-3-49 0c0 0 0 3 0 3z m0-8l49 0 0-2-49 0c0 0 0 2 0 2z m0-7l49 0 0-1z m-97 103l41 0 0-3-41 0z m0-7l41 0 0-3-41 0z m0-7l41 0 0-4-41 0z m0-8l41 0 0-3-41 0z m0-7l41 0 0-3-41 0z m0-8l41 0 0-3-41 0z m0-7l41 0 0-3-41 0z m0-8l41 0 0-2-41 0z m0-7l41 0 0-2-41 0z m0-7l41 0 0-3-41 0z m0-7l41 0 0-3-41 0z m0-8l41 0 0-4-41 0z m0-7l41 0 0-3-41 0z m0-8l41 0 0-2-41 0z m0-7l41 0 0-1z m89-131l-89 0 0 122 89 0z m0 130l-46 0 0 1z m0 6l-46 0 0 2 46 0z m0 7l-46 0 0 3 46 0z m0 7l-46 0 0 4 46 0z m0 7l-46 0 0 3 46 0z m0 8l-46 0 0 3 46 0z m0 7l-46 0 0 3 46 0z m0 8l-46 0 0 2 46 0z m0 7l-46 0 0 3 46 0z m0 7l-46 0 0 3 46 0z m0 7l-46 0 0 4 46 0z m0 8l-46 0 0 3 46 0z m0 7l-46 0 0 4 46 0z m0 8l-46 0 0 3 46 0z m0 7l-46 0 0 3 46 0z m100-231l-92 0 0 122 66 0 0-48c-2 0-4-2-4-4l0-11c0-3 2-5 4-5l5 0c2 0 4 2 4 5l0 10c0 2-2 3-3 4l0 49 20 0 0-122z m0 130l-20 0 0 1z m0 6l-20 0 0 2 20 0 0-2z m0 7l-20 0 0 3 20 0 0-3z m0 7l-20 0 0 4 20 0 0-4z m0 7l-20 0 0 3 20 0 0-3z m0 8l-20 0 0 3 20 0 0-3z m0 7l-20 0 0 3 20 0 0-3z m0 8l-20 0 0 2 20 0 0-2z m0 7l-20 0 0 3 20 0 0-3z m0 7l-20 0 0 3 20 0 0-3z m0 7l-20 0 0 4 20 0 0-4z m0 8l-20 0 0 3 20 0 0-3z m0 7l-20 0 0 4 20 0 0-4z m0 8l-20 0 0 3 20 0 0-3z m0 7l-20 0 0 3 20 0 0-3z"/>
<glyph glyph-name="shuffle" unicode="&#46;" d="M306 211c-5 2-12 6-20 14-7 6-14 15-21 24-1-2-3-5-5-7-4-6-9-12-14-19 17-20 34-40 60-43l0-24 66 39-66 38z m-110 76c6-6 13-15 20-24 2 3 4 5 5 7 5 6 10 13 14 19-18 21-36 43-65 44l-30 0 0-31 30 0c6 0 15-4 26-15z m110 14l0-22 66 38-66 39 0-24c-17-2-30-11-42-23-19-19-36-45-52-66-17-21-33-34-42-33l-30 0 0-31 30 0c20 1 34 12 47 24 19 19 36 45 53 66 13 18 27 29 36 32z"/>
<glyph glyph-name="time-sun" unicode="&#47;" d="M331 190c1 3 1 7 1 11 0 4 0 8-1 12l46 0 0-23z m-30 73l32 32 17-17-32-32c-5 6-11 12-17 17z m12-73l-24 0c1 3 2 7 2 11 0 20-16 35-35 35-20 0-36-15-36-35 0-4 1-8 2-11l-24 0c-1 3-1 7-1 11 0 33 26 59 59 59 32 0 59-26 59-59 0-4-1-8-2-11z m-69 87l0 45 24 0 0-45c-4 0-8 1-12 1-4 0-8-1-12-1z m-82 1l17 17 32-32c-7-5-12-10-17-17z m17-77c0-4 1-8 1-11l-45 0 0 23 45 0c0-4-1-8-1-12z"/>
<glyph glyph-name="timinglamp" unicode="&#58;" d="M171 295c0 56 91 56 92 1 4 2 9 3 14 4-5 70-121 68-121-5 0-35 31-54 31-82l14 0c0 35-30 52-30 82z m25-99l14 0 0 10-14 0c-3 0-5-2-5-5 0-3 2-5 5-5z m16-35l8 0c4 0 5 1 16 11l-39 0c10-9 11-11 15-11z m-15 28c-3 0-5-3-5-5 0-3 2-6 5-6l39 0c1 0 2 1 3 1-3 3-6 6-8 10l-34 0z m86 26l39 2 0 12-28-1-1 30-12-1z m-7 58c3 1 6 2 9 2l0 14c-6-1-10-2-15-4z m46 10c-9 5-19 7-28 7l0-14c8 0 15-2 22-5 23-13 33-42 21-65-13-24-42-34-65-21-12 6-21 16-25 28l14 5-30 23-12-37 15 5c4-15 16-29 31-37 31-15 68-3 83 27 17 31 4 68-26 84z m-54-14l-6 12c-4-2-8-6-11-9l10-9c2 3 5 4 7 6z m-30-14l12-6c1 2 3 5 5 7l-10 10c-3-4-5-8-7-11z"/>
<glyph glyph-name="tiparrow" unicode="&#59;" d="M414 250c-97-21-248-34-332 14l30 16-69 19 20-78 12 29c0-3 1-3 1-3 0 0 64-35 156-34 91 1 137 12 185 32l5 8c-1 0 111 44-8-3z"/>
<glyph glyph-name="trash" unicode="&#60;" d="M303 237c-17 0-31-14-31-30 0-17 14-30 31-30 16 0 30 13 30 30 0 16-14 30-30 30z m18-36l-36 0 0 11 36 0z m-48-23c-15 14-17 36-6 52l0 44c0 3 3 5 6 5 3 0 6-2 6-5l0-33c7 5 15 8 24 8l0 48-117 0 0-120 88 0c0 0-1 0-1 1z m-51 23c0-4-3-6-6-6-3 0-5 2-5 6l0 73c0 3 2 5 5 5 3 0 6-2 6-5z m29 0c0-4-3-6-6-6-3 0-6 2-6 6l0 73c0 3 3 5 6 5 3 0 6-2 6-5z m60 108l-132 0 0 16 37 0c6 0 11 5 11 10l36 0c0-6 4-10 11-10l37 0 0-16z"/>
<glyph glyph-name="tv" unicode="&#61;" d="M264 322l32 33-7 7-33-34-34 34-6-8 32-33-94 0 0-139 204 0 0 140z m75-119l-166 0 0 99 166 0c0 0 0-99 0-99z m-135-58l104 0 0 17-104 0z"/>
<glyph glyph-name="user" unicode="&#62;" d="M354 190c-5 26-51 21-71 45-4 5-4 5-1 23 5 21 9 8 16 49 5 35-7 65-43 65-36 0-48-30-43-65 7-41 11-28 16-49 3-18 3-18-1-23-20-24-64-19-69-45-1-3-3-34-3-34l202 0c0 0-2 31-3 34z"/>
<glyph glyph-name="volume" unicode="&#63;" d="M256 318l-48-32-28 0c-1 0-3-2-3-4l0-52c0-2 2-4 3-4l28 0 48-32c2 0 4 2 4 5l0 114c0 3-2 5-4 5z m34-12c0 1 0 1 0 1-1 1-2 2-4 2-1 0-3-1-4-2l-2-3c-2-2-3-6-1-9 16-23 16-55 0-78-2-3-1-7 1-9l2-3c1-1 3-2 4-2 2 0 3 1 4 3 20 29 20 71 0 100z m21 26c0 0 0 0 0 0-1 1-3 2-4 2-2 0-3-1-4-2l-3-3c-2-2-2-6 0-9 27-37 27-91 0-128-2-3-2-7 0-9l3-3c1-1 2-2 4-2 1 0 3 1 4 2 31 44 31 108 0 152z"/>
<glyph glyph-name="volume-off" unicode="&#64;" d="M256 318l-48-32-28 0c-2 0-3-2-3-4l0-52c0-2 1-4 3-4l28 0 48-32c2 0 4 2 4 5l0 114c0 3-2 5-4 5z m80-46l-12 12-18-18-18 18-12-12 18-18-18-18 12-12 18 18 18-18 12 12-18 18z"/>
<glyph glyph-name="cozifyfi" unicode="&#65;" d="M153 336l13 0 0-51-13 0z m38-23c-5 6-11 10-17 12l0-16c10-6 17-16 17-28 0-18-14-32-32-32-18 0-32 14-32 32 0 12 7 23 18 28l0 16c-3-1-6-3-8-4-7-4-13-10-17-17-4-7-6-14-6-23 0-12 4-23 13-32 9-8 19-13 33-13 12 0 23 4 31 13 9 9 14 19 14 32 0 13-5 24-14 32z m-144 1c10 0 20-5 29-14l9 10c-5 5-11 10-17 13-7 3-14 4-21 4-9 0-17-2-24-6-7-4-13-9-17-16-4-7-6-15-6-23 0-14 5-25 13-33 9-9 20-13 34-13 7 0 14 1 19 4 6 2 12 6 18 13l-8 10c-6-5-10-9-15-11-4-2-9-3-14-3-6 0-12 1-17 4-5 3-9 7-12 12-3 5-4 10-4 17 0 9 3 16 10 23 6 6 13 9 23 9z m273 11l15 0 0-87-15 0z m55-87l14 0 0 39 29 0 0 15-29 0 0 18 29 0 0 15-43 0z m111 0l0 38 26 49-15 0-17-32-18 32-15 0 26-49 0-38z m-250 87l0-14 31 0-32-73 51 0 0 14-31 0 33 73z m-227-126l-9-23 2 0c1 0 1 0 1 0 0 0 0 0 0 1l2 5 11 0 2-5c0-1 0-1 0-1 0 0 0 0 1 0l2 0-9 23-3 0z m-3-15l4 10c0 0 0 0 0 1 0 0 0 0 1 1 0-1 0-2 0-2l4-10z m38 15l0-15c0-1 0-2 0-3 0 0 0-1-1-1 0-1 0-1-1-1-1-1-1-1-2-1-1 0-1 0-1 0-1 0-1 1-1 1 0 0 0 0 0-1-1 0-1 0-1 0 0 0 0-1 0-1 0 0 0-1 0-1 1 0 3 0 4 0 1 0 2 0 3 0 1 1 1 1 2 2 1 1 1 2 1 3 1 1 1 2 1 3l0 15-4 0z m28 0l-9-23 3 0c0 0 0 0 0 0 0 0 1 0 1 0l2 6 10 0 2-6c0 0 0 0 0 0 0 0 1 0 1 0l2 0-9 23z m-3-15l4 10c0 0 0 0 1 1 0 0 0 0 0 1 0-1 0-2 1-2l3-10z m28 12l7 0 0-20 3 0 0 20 7 0 0 3-17 0z m33 0l7 0 0-20 3 0 0 20 7 0 0 3-17 0z m35-20l14 0 0 2-10 0 0 8 8 0 0 2-8 0 0 8 10 0 0 3-14 0z m37 23l-4 0 0-23 13 0 0 2-9 0z m26-23l14 0 0 2-10 0 0 8 8 0 0 2-8 0 0 8 10 0 0 3-14 0z m34 0l14 0 0 2-11 0 0 8 9 0 0 2-9 0 0 8 11 0 0 3-14 0z m62 11c-1 0-1 1-1 1 0 0 0 0 0 0 1 0 1 0 1 1l9 9-3 0c0 0 0 0-1 0 0 0 0 0 0 0l-8-9c0 0 0 0 0-1-1 0-1 0-1 0l-2 0 0 11-3 0 0-23 3 0 0 10 2 0c0 0 0 0 0 0 1 0 1 0 1 0 0 0 0 0 0 0 0 0 0 0 1-1l7-9 1 0c0 0 0 0 0 0 0 0 1 0 1 0l2 0-9 10c0 1 0 1 0 1z m42 9c-1 1-2 1-3 2-2 1-3 1-5 1-1 0-3 0-4-1-2-1-3-1-4-2-1-1-1-3-2-4 0-2-1-3-1-5 0-1 1-3 1-4 1-2 1-3 2-4 1-1 3-2 4-2 1-1 3-1 4-1 2 0 4 0 5 1 1 0 2 1 3 2 1 1 2 2 2 4 1 1 1 3 1 4 0 2 0 3-1 5 0 1-1 3-2 4z m0-13c-1-1-1-2-2-2-1-1-2-2-2-2-1-1-3-1-4-1-1 0-2 0-3 1-1 0-2 1-2 2-1 0-2 1-2 2 0 1-1 3-1 4 0 2 1 3 1 4 0 1 1 2 2 3 0 1 1 1 2 2 1 0 2 0 3 0 1 0 3 0 4 0 1-1 1-1 2-2 1-1 1-2 2-3 0-1 0-2 0-4 0-1 0-2 0-4z m16 13l8 0 0-20 3 0 0 20 7 0 0 3-18 0z m36 3l3 0 0-23-3 0z m30 0l-9-23 2 0c0 0 1 0 1 0 0 0 0 0 0 0l2 6 10 0 2-6c0 0 1 0 1 0 0 0 0 0 0 0l3 0-9 23z m-3-15l4 10c0 0 0 0 0 1 0 0 0 0 0 1 1-1 1-2 1-2l3-10z m44 3c-1 1-1 1-2 1-1 1-1 1-2 1-1 0-1 1-2 1-1 0-1 0-2 1 0 0-1 0-1 1 0 0 0 1 0 1 0 1 0 1 0 2 0 0 0 1 1 1 0 0 0 1 1 1 0 0 1 0 2 0 0 0 1 0 1 0 1 0 1-1 2-1 0 0 0 0 0 0 1-1 1-1 1-1 0 0 1 0 1 1 0 0 0 0 0 0l1 1c-1 0-1 1-3 1-1 1-2 1-3 1-1 0-2 0-3-1-1 0-2 0-2-1-1-1-1-1-2-2 0-1 0-2 0-2 0-2 0-2 0-3 1-1 1-1 2-2 0 0 1-1 1-1 1 0 2 0 2-1 1 0 2 0 2 0 1 0 2-1 2-1 1 0 1-1 1-1 1 0 1-1 1-2 0 0 0-1-1-1 0-1 0-1 0-1-1-1-1-1-2-1 0 0-1 0-2 0-1 0-1 0-2 0-1 0-1 0-2 1 0 0 0 0-1 1 0 0 0 0 0 0-1 0-1 0-1 0 0 0 0 0 0 0l-1-2c1-1 2-1 3-2 1-1 2-1 4-1 1 0 2 0 3 1 1 0 2 1 3 1 0 1 1 2 1 3 1 0 1 1 1 2 0 1-1 2-1 3 0 0-1 1-1 1z m19 12l3 0 0-23-3 0z"/>
<glyph glyph-name="lamp" unicode="&#91;" d="M282 193l-52 0c-3 0-6-2-6-6 0-4 3-7 6-7l52 0c3 0 6 3 6 7 0 4-3 6-6 6z m-1-21l-50 0c-3 0-6-2-6-6 0-4 3-7 6-7l50 0c3 0 6 3 6 7 0 3-3 6-6 6z m-49-21c12-11 14-14 19-14l10 0c5 0 6 3 19 14z m99 154c0-44-38-68-38-102l-18 0c0 42 38 64 38 102 0 70-114 70-114 0 0-38 37-59 38-102l-18 0c0 34-38 58-38 102 0 93 150 93 150 0z"/>
<glyph glyph-name="rc" unicode="&#93;" d="M226 381l9-9c5 6 13 9 21 9 8 0 16-3 21-9l9 9c-8 8-18 13-30 13-12 0-22-5-30-13z m30 27c14 0 27-6 37-16l9 9c-12 12-28 19-46 19-18 0-34-7-46-19l9-9c10 10 23 16 37 16z m10-58l-20 0c-23 0-41-18-41-41l0-151c0-22 18-41 41-41l20 0c23 0 41 19 41 41l0 151c0 23-18 41-41 41z m-30-38c8 0 13-6 13-13 0-8-6-14-13-14-8 0-14 6-14 14 0 7 6 13 14 13z m0-39c7 0 13-6 13-13 0-8-6-14-13-14-8 0-14 6-14 14 0 7 6 13 14 13z m-14-52c0 7 6 13 14 13 7 0 13-6 13-13 0-7-6-13-13-13-8 0-14 6-14 13z m58-56l-47 0 0 12 47 0 0-12z m-3 43c-7 0-13 6-13 13 0 7 6 13 13 13 8 0 14-6 14-13 0-7-6-13-14-13z m0 38c-7 0-13 6-13 14 0 7 6 13 13 13 8 0 14-6 14-13 0-8-6-14-14-14z m0 39c-7 0-13 6-13 14 0 7 6 13 13 13 8 0 14-6 14-13 0-8-6-14-14-14z"/>
<glyph glyph-name="twilightsensor" unicode="&#95;" d="M375 133l-10 11c31 29 49 69 49 114 0 87-70 158-158 158-88 0-158-71-158-158 1-45 19-85 49-114l-10-10c-33 31-53 75-53 124 0 95 77 172 172 172 95 0 173-77 173-172 0-49-21-93-54-125z m-119 197c-41 0-74-33-74-74 0-41 33-74 74-74 41 0 74 33 74 74 0 41-33 74-74 74z m0-135c-34 0-61 27-61 61 0 34 27 61 61 61 2 0 4 0 6 0 0-49 0-59 0-122-2 0-4 0-6 0z"/>
<glyph glyph-name="wallswitch" unicode="&#96;" d="M323 357c-3 2-6 3-9 3l-116 0c-3 0-6-1-9-3-2-2-3-5-3-9l0-184c0-4 1-7 3-9 3-2 6-3 9-3l116 0c3 0 6 1 9 3 2 2 3 5 3 9l0 184c0 4-1 7-3 9z m-5-184c0-3-1-5-3-7-2-2-5-3-8-3l-102 0c-3 0-6 1-8 3-2 2-3 4-3 7l0 166c0 3 1 5 3 7 2 2 5 3 8 3l102 0c3 0 6-1 8-3 2-2 3-4 3-7z m-108 83l0-80 92 0 0 80z"/>
<glyph glyph-name="doorbell" unicode="&#94;" d="M266 325c-28 0-50-31-50-69 0-38 22-69 50-69 27 0 50 31 50 69 0 38-23 69-50 69z m0-121c-21 0-38 24-38 52 0 28 17 52 38 52 9 0 17-5 24-12-3 1-6 1-9 1-16 0-30-18-30-41 0-23 14-41 30-41 3 0 6 0 9 1-7-7-15-12-24-12z m16 28c-9 0-17 11-17 24 0 13 8 24 17 24 10 0 18-11 18-24 0-13-8-24-18-24z m-26 160c-54 0-98-61-98-136 0-75 44-136 98-136 54 0 98 61 98 136 0 75-44 136-98 136z m0-261c-50 0-91 56-91 125 0 69 41 125 91 125 50 0 91-56 91-125 0-69-41-125-91-125z"/>
<glyph glyph-name="editpen" unicode="&#67;" d="M191 191l38 9-29 29z m100 130l-83-83 30-30 83 83z"/>
<glyph glyph-name="phoneremote" unicode="&#123;" d="M347 432c-29 0-53-17-64-42l-94 0c-5 0-9-3-9-8l0-252c0-5 4-8 9-8l134 0c5 0 9 3 9 8l0 164c4-2 9-2 15-2 38 0 70 31 70 70 0 39-32 70-70 70z m-88-299c-9 0-16 7-16 15 0 9 7 16 16 16 8 0 15-7 15-16 0-8-7-15-15-15z m59 41l-125 0 0 192 84 0c0-2 0-3 0-4 0-28 17-53 41-64z m29 123c-36 0-65 29-65 65 0 36 29 64 65 64 35 0 64-28 64-64 0-36-29-65-64-65z m30 81c-1 0-3 0-4 0-4 11-15 19-28 19-14 0-26-10-28-23-9-2-15-9-15-18 0-9 7-17 16-17l59 0c11 0 20 9 20 20 0 10-9 19-20 19z m0-33l-59 0c-6 0-11 5-11 11 0 7 5 12 12 12 0 0 0 0 0 0l3 0 0 3c1 12 11 21 23 21 11 0 21-8 23-18l1-3 3 1c2 0 3 1 5 1 8 0 14-7 14-14 0-8-6-14-14-14z"/>
<glyph glyph-name="room" unicode="&#124;" d="M345 178l-29 0 0 162c0 3-2 6-6 6l-107 0c-4 0-6-3-6-6l0-162-30 0c-4 0-6-2-6-6 0-3 2-6 6-6l178 0c4 0 6 3 6 6 0 4-2 6-6 6z m-41-6l-95 0 0 162 95 0z m-17 64c5 0 9 4 9 9 0 5-4 9-9 9-5 0-9-4-9-9 0-5 4-9 9-9z m0 12c2 0 4-1 4-3 0-1-2-3-4-3-1 0-3 2-3 3 0 2 2 3 3 3z"/>
<glyph glyph-name="progressonecolor" unicode="&#125;" d="M249 334c-37-4-66-33-71-69-5-45 28-83 71-87 4 0 7 3 7 7l0 3c0 3-3 6-6 6-32 3-58 31-56 65 1 32 28 58 60 59 25 1 47-13 57-34 2-3 5-4 8-3l3 1c4 2 5 6 4 9-14 27-44 46-77 43z"/>
</font>
</defs>
</svg>
