mtllib Xonja_box.mtl
v 300.310760 503.481384 -479.702820
v -107.408844 544.665771 -893.942932
v -132.239807 545.438354 -893.385620
v 283.536743 559.575867 -1304.939575
v 283.106140 561.013916 -1326.095581
v 694.460510 519.716431 -911.937012
v 715.656738 519.056946 -912.412720
v -89.879425 544.215210 -895.745544
v 301.276794 504.923462 -501.595703
v 300.861115 506.313782 -522.049011
v 673.987915 520.305847 -910.770752
v 282.831665 559.597778 -1304.923706
v 283.247253 558.207520 -1284.471069
v -89.879517 544.215454 -895.749329
v -104.487762 545.073364 -901.414124
v 694.475525 519.668335 -911.230469
v -105.234894 544.261841 -888.994995
v 299.866455 504.967346 -501.564026
v 300.310760 503.481384 -479.702820
v 156.127197 517.467041 -617.597107
v 11.943726 531.452698 -755.491333
v -132.239807 545.438354 -893.385620
v 369.633667 373.984467 -496.375977
v 203.599182 386.856079 -607.128845
v 37.564743 399.727722 -717.881775
v -128.469666 412.599365 -828.634583
v -132.239807 545.438354 -893.385620
v 6.208801 550.630249 -1037.622192
v 144.657532 555.822083 -1181.858887
v 283.106140 561.013916 -1326.095581
v -128.469666 412.599365 -828.634583
v -17.161560 420.140930 -994.624939
v 94.146622 427.682495 -1160.615479
v 205.454773 435.224030 -1326.605835
v 283.106140 561.013916 -1326.095581
v 427.289673 547.028259 -1188.201172
v 571.473206 533.042603 -1050.307007
v 715.656738 519.056946 -912.412720
v 205.454773 435.224030 -1326.605835
v 371.489136 422.352417 -1215.852905
v 537.523743 409.480774 -1105.100220
v 703.558105 396.609131 -994.347168
v 715.656738 519.056946 -912.412720
v 577.208008 513.865051 -768.176086
v 438.759338 508.673218 -623.939453
v 300.310760 503.481384 -479.702820
v 703.558105 396.609131 -994.347168
v 592.249878 389.067566 -828.356750
v 480.941681 381.526031 -662.366394
v 369.633667 373.984467 -496.375977
v -89.879425 544.215210 -895.745544
v 40.367462 531.581421 -771.180054
v 170.614288 518.947571 -646.614563
v 300.861115 506.313782 -522.049011
v -87.147247 411.901886 -838.300964
v 62.838455 400.274414 -738.253357
v 212.824127 388.646942 -638.205750
v 362.809784 377.019470 -538.158142
v 300.861115 506.313782 -522.049011
v 425.236664 510.977783 -651.622925
v 549.612305 515.641785 -781.196899
v 673.987915 520.305847 -910.770752
v 362.809784 377.019470 -538.158142
v 462.803772 383.794342 -687.274597
v 562.797913 390.569244 -836.391235
v 662.792053 397.344116 -985.507507
v 673.987915 520.305847 -910.770752
v 543.740967 532.939758 -1035.337524
v 413.494141 545.573669 -1159.904419
v 283.247253 558.207520 -1284.471069
v 662.792053 397.344116 -985.507507
v 512.806091 408.971680 -1085.556519
v 362.820190 420.599243 -1185.605347
v 212.834290 432.226807 -1285.654053
v 283.247253 558.207520 -1284.471069
v 158.871704 553.543518 -1154.897095
v 34.496094 548.879517 -1025.323242
v -89.879517 544.215454 -895.749329
v 212.834290 432.226807 -1285.654053
v 112.840256 425.451904 -1136.537720
v 12.846100 418.677032 -987.421082
v -87.147949 411.902161 -838.304565
v -89.879517 544.215454 -895.749329
v -89.879425 544.215210 -895.745544
v -87.147949 411.902161 -838.304565
v -87.147247 411.901886 -838.300964
v 369.633667 373.984467 -496.375977
v -104.103516 412.131104 -833.487732
v -128.469666 412.599365 -828.634583
v 209.558960 433.693329 -1305.854126
v 205.454773 435.224030 -1326.605835
v 682.758484 397.008850 -990.204590
v 703.558105 396.609131 -994.347168
v -87.147247 411.901886 -838.300964
v 366.777130 375.539612 -518.095520
v 362.809784 377.019470 -538.158142
v 662.792053 397.344116 -985.507507
v 208.867126 433.706604 -1305.716187
v 212.834290 432.226807 -1285.654053
v -87.147949 411.902161 -838.304565
v -102.525208 412.608765 -841.348816
v 682.896240 396.957703 -989.511536
v -101.101074 411.730652 -828.993591
v 365.393127 375.566193 -517.819763
vt 0.000000 0.000000
vt 0.029285 0.970715
vt 0.000000 1.000000
vt 0.975005 0.975004
vt 1.000000 1.000000
vt 0.975001 0.024999
vt 1.000000 0.000000
vt 0.051658 0.951671
vt 0.027492 0.024165
vt 0.051658 0.048330
vt 0.950004 0.048326
vt 0.974173 0.975835
vt 0.950009 0.951671
vt 0.051662 0.951676
vt 0.041654 0.975838
vt 0.974167 0.024163
vt 0.025829 0.962370
vt 0.025829 0.025829
vt 1.000000 1.000000
vt 0.956160 1.000000
vt 0.912320 1.000000
vt 0.868480 1.000000
vt 1.000000 0.500000
vt 0.956160 0.500000
vt 0.912320 0.500000
vt 0.868480 0.500000
vt 0.868480 1.000000
vt 0.824639 1.000000
vt 0.780799 1.000000
vt 0.736959 1.000000
vt 0.868480 0.500000
vt 0.824639 0.500000
vt 0.780799 0.500000
vt 0.736959 0.500000
vt 0.736959 1.000000
vt 0.693119 1.000000
vt 0.649279 1.000000
vt 0.605439 1.000000
vt 0.736959 0.500000
vt 0.693119 0.500000
vt 0.649279 0.500000
vt 0.605439 0.500000
vt 0.605439 1.000000
vt 0.561599 1.000000
vt 0.517759 1.000000
vt 0.473919 1.000000
vt 0.605439 0.500000
vt 0.561599 0.500000
vt 0.517759 0.500000
vt 0.473919 0.500000
vt 0.473919 1.000000
vt 0.434316 1.000000
vt 0.394713 1.000000
vt 0.355111 1.000000
vt 0.473919 0.500000
vt 0.434316 0.500000
vt 0.394713 0.500000
vt 0.355111 0.500000
vt 0.355111 1.000000
vt 0.315727 1.000000
vt 0.276344 1.000000
vt 0.236960 1.000000
vt 0.355111 0.500000
vt 0.315727 0.500000
vt 0.276344 0.500000
vt 0.236960 0.500000
vt 0.236960 1.000000
vt 0.197357 1.000000
vt 0.157754 1.000000
vt 0.118152 1.000000
vt 0.236960 0.500000
vt 0.197357 0.500000
vt 0.157754 0.500000
vt 0.118152 0.500000
vt 0.118152 1.000000
vt 0.078768 1.000000
vt 0.039384 1.000000
vt 0.000001 1.000000
vt 0.118152 0.500000
vt 0.078768 0.500000
vt 0.039384 0.500000
vt 0.000001 0.500000
vt 0.000001 1.000000
vt 0.000000 1.000000
vt 0.000001 0.500000
vt 0.000000 0.500000
vt 0.000000 0.000000
vt 0.029285 0.970715
vt 0.000000 1.000000
vt 0.975005 0.975004
vt 1.000000 1.000000
vt 0.975001 0.024999
vt 1.000000 0.000000
vt 0.051658 0.951671
vt 0.027492 0.024165
vt 0.051658 0.048330
vt 0.950004 0.048326
vt 0.974173 0.975835
vt 0.950009 0.951671
vt 0.051662 0.951676
vt 0.041654 0.975838
vt 0.974167 0.024163
vt 0.025829 0.962370
vt 0.025829 0.025829
vn 0.032534 0.997214 0.067123
vn 0.032534 0.997214 0.067123
vn 0.032534 0.997214 0.067123
vn 0.032534 0.997214 0.067123
vn 0.032534 0.997214 0.067123
vn 0.032534 0.997214 0.067123
vn 0.032534 0.997214 0.067123
vn 0.032534 0.997214 0.067123
vn 0.032534 0.997214 0.067123
vn 0.032534 0.997214 0.067123
vn 0.032534 0.997214 0.067123
vn 0.032534 0.997214 0.067123
vn 0.032534 0.997214 0.067123
vn 0.032534 0.997214 0.067123
vn 0.032534 0.997214 0.067123
vn 0.032534 0.997214 0.067123
vn 0.032534 0.997214 0.067123
vn 0.032534 0.997214 0.067123
vn -0.646188 -0.427334 0.632319
vn -0.687808 -0.193927 0.699509
vn -0.685572 0.073450 0.724290
vn -0.637617 0.322839 0.699442
vn -0.533056 -0.382524 0.754670
vn -0.557020 -0.136802 0.819154
vn -0.543067 0.131172 0.829380
vn -0.495761 0.369113 0.786115
vn -0.672408 -0.339649 -0.657651
vn -0.716069 -0.099415 -0.690913
vn -0.714103 0.168862 -0.679369
vn -0.664497 0.412728 -0.622976
vn -0.789570 -0.286842 -0.542494
vn -0.829294 -0.035242 -0.557700
vn -0.812773 0.231774 -0.534491
vn -0.745982 0.462447 -0.479222
vn 0.619854 -0.379857 -0.686651
vn 0.676824 -0.142753 -0.722171
vn 0.692050 0.125112 -0.710925
vn 0.660270 0.371510 -0.652705
vn 0.510403 -0.311826 -0.801407
vn 0.550542 -0.061760 -0.832520
vn 0.554051 0.205507 -0.806718
vn 0.522095 0.438077 -0.731782
vn 0.646074 -0.467540 0.603319
vn 0.705086 -0.237265 0.668251
vn 0.720581 0.029699 0.692734
vn 0.687150 0.281620 0.669713
vn 0.766918 -0.407507 0.495757
vn 0.822816 -0.163319 0.544335
vn 0.823757 0.104904 0.557153
vn 0.772316 0.344743 0.533555
vn 0.645901 -0.292765 -0.705053
vn 0.686489 -0.064146 -0.724305
vn 0.689102 0.177895 -0.702489
vn 0.654904 0.394122 -0.644801
vn 0.504745 -0.334999 -0.795618
vn 0.545056 -0.114975 -0.830479
vn 0.557211 0.127553 -0.820516
vn 0.537962 0.353122 -0.765442
vn -0.694313 -0.248515 -0.675403
vn -0.720965 -0.018776 -0.692717
vn -0.707470 0.221576 -0.671111
vn -0.657671 0.434085 -0.615661
vn -0.783576 -0.308222 -0.539452
vn -0.825515 -0.087548 -0.557549
vn -0.823877 0.153865 -0.545483
vn -0.777077 0.377063 -0.503959
vn -0.666633 -0.341885 0.662356
vn -0.692369 -0.115736 0.712201
vn -0.679156 0.126701 0.722975
vn -0.630735 0.346007 0.694588
vn -0.528873 -0.405125 0.745766
vn -0.554987 -0.189619 0.809959
vn -0.551353 0.052329 0.832629
vn -0.517279 0.281528 0.808186
vn 0.673452 -0.382346 0.632672
vn 0.715065 -0.159411 0.680639
vn 0.717521 0.082042 0.691688
vn 0.682033 0.303045 0.665579
vn 0.759167 -0.428910 0.489593
vn 0.815441 -0.216071 0.536999
vn 0.829791 0.024325 0.557544
vn 0.797980 0.253800 0.546638
vn 0.999736 0.012176 -0.019493
vn 0.999736 0.012181 -0.019493
vn 0.977936 -0.065881 -0.198247
vn 0.977936 -0.065876 -0.198246
vn -0.032534 -0.997214 -0.067123
vn -0.032534 -0.997214 -0.067123
vn -0.032534 -0.997214 -0.067123
vn -0.032534 -0.997214 -0.067123
vn -0.032534 -0.997214 -0.067123
vn -0.032534 -0.997214 -0.067123
vn -0.032534 -0.997214 -0.067123
vn -0.032534 -0.997214 -0.067123
vn -0.032534 -0.997214 -0.067123
vn -0.032534 -0.997214 -0.067123
vn -0.032534 -0.997214 -0.067123
vn -0.032534 -0.997214 -0.067123
vn -0.032534 -0.997214 -0.067123
vn -0.032534 -0.997214 -0.067123
vn -0.032534 -0.997214 -0.067123
vn -0.032534 -0.997214 -0.067123
vn -0.032534 -0.997214 -0.067123
vn -0.032534 -0.997214 -0.067123
usemtl Rectangle 1 Front Inflation Material
f 13/13/13 11/11/11 6/6/6
f 12/12/12 15/15/15 13/13/13
f 8/8/8 14/14/14 2/2/2
f 15/15/15 2/2/2 14/14/14
f 16/16/16 6/6/6 11/11/11
f 15/15/15 12/12/12 3/3/3
f 6/6/6 7/7/7 4/4/4
f 16/16/16 9/9/9 1/1/1
f 9/9/9 10/10/10 18/18/18
f 16/16/16 11/11/11 9/9/9
f 12/12/12 13/13/13 4/4/4
f 14/14/14 13/13/13 15/15/15
f 17/17/17 8/8/8 2/2/2
f 17/17/17 3/3/3 18/18/18
f 1/1/1 18/18/18 3/3/3
f 2/2/2 15/15/15 3/3/3
f 2/2/2 3/3/3 17/17/17
f 3/3/3 12/12/12 5/5/5
f 4/4/4 5/5/5 12/12/12
f 5/5/5 4/4/4 7/7/7
f 1/1/1 7/7/7 16/16/16
f 18/18/18 1/1/1 9/9/9
f 6/6/6 16/16/16 7/7/7
f 18/18/18 10/10/10 17/17/17
f 8/8/8 17/17/17 10/10/10
f 10/10/10 9/9/9 11/11/11
f 4/4/4 13/13/13 6/6/6
usemtl Rectangle 1 Front Bevel Material
f 1/1/1 1/1/1 1/1/1
usemtl Rectangle 1 Extrusion Material
f 56/56/56 53/53/53 57/57/57
f 57/57/57 53/53/53 54/54/54
f 57/57/57 54/54/54 58/58/58
f 63/63/63 59/59/59 60/60/60
f 63/63/63 60/60/60 64/64/64
f 64/64/64 60/60/60 61/61/61
f 64/64/64 61/61/61 65/65/65
f 65/65/65 61/61/61 62/62/62
f 65/65/65 62/62/62 66/66/66
f 71/71/71 67/67/67 68/68/68
f 71/71/71 68/68/68 72/72/72
f 72/72/72 69/69/69 73/73/73
f 73/73/73 69/69/69 70/70/70
f 73/73/73 70/70/70 74/74/74
f 79/79/79 75/75/75 76/76/76
f 79/79/79 76/76/76 80/80/80
f 80/80/80 76/76/76 77/77/77
f 80/80/80 77/77/77 81/81/81
f 81/81/81 77/77/77 78/78/78
f 81/81/81 78/78/78 82/82/82
f 85/85/85 83/83/83 84/84/84
f 85/85/85 84/84/84 86/86/86
f 72/72/72 68/68/68 69/69/69
f 23/23/23 19/19/19 20/20/20
f 23/23/23 20/20/20 24/24/24
f 24/24/24 20/20/20 21/21/21
f 24/24/24 21/21/21 25/25/25
f 25/25/25 21/21/21 22/22/22
f 25/25/25 22/22/22 26/26/26
f 31/31/31 27/27/27 28/28/28
f 31/31/31 28/28/28 32/32/32
f 32/32/32 28/28/28 29/29/29
f 32/32/32 29/29/29 33/33/33
f 33/33/33 29/29/29 30/30/30
f 33/33/33 30/30/30 34/34/34
f 39/39/39 35/35/35 36/36/36
f 39/39/39 36/36/36 40/40/40
f 40/40/40 36/36/36 37/37/37
f 40/40/40 37/37/37 41/41/41
f 41/41/41 37/37/37 38/38/38
f 41/41/41 38/38/38 42/42/42
f 47/47/47 43/43/43 44/44/44
f 47/47/47 44/44/44 48/48/48
f 48/48/48 44/44/44 45/45/45
f 48/48/48 45/45/45 49/49/49
f 49/49/49 45/45/45 46/46/46
f 49/49/49 46/46/46 50/50/50
f 55/55/55 51/51/51 52/52/52
f 55/55/55 52/52/52 56/56/56
f 56/56/56 52/52/52 53/53/53
usemtl Rectangle 1 Back Bevel Material
f 1/1/1 1/1/1 1/1/1
usemtl Rectangle 1 Back Inflation Material
f 89/89/89 88/88/88 103/103/103
f 98/98/98 101/101/101 89/89/89
f 93/93/93 92/92/92 90/90/90
f 95/95/95 102/102/102 87/87/87
f 96/96/96 95/95/95 104/104/104
f 97/97/97 102/102/102 95/95/95
f 99/99/99 98/98/98 90/90/90
f 99/99/99 100/100/100 101/101/101
f 94/94/94 103/103/103 88/88/88
f 89/89/89 103/103/103 104/104/104
f 104/104/104 87/87/87 89/89/89
f 101/101/101 88/88/88 89/89/89
f 98/98/98 89/89/89 91/91/91
f 91/91/91 90/90/90 98/98/98
f 90/90/90 91/91/91 93/93/93
f 93/93/93 87/87/87 102/102/102
f 87/87/87 104/104/104 95/95/95
f 102/102/102 92/92/92 93/93/93
f 96/96/96 104/104/104 103/103/103
f 103/103/103 94/94/94 96/96/96
f 95/95/95 96/96/96 97/97/97
f 99/99/99 90/90/90 92/92/92
f 97/97/97 99/99/99 92/92/92
f 92/92/92 102/102/102 97/97/97
f 101/101/101 98/98/98 99/99/99
f 100/100/100 94/94/94 88/88/88
f 88/88/88 101/101/101 100/100/100
